<?xml version="1.0" standalone="no"?>
<!DOCTYPE svg PUBLIC "-//W3C//DTD SVG 20010904//EN"
 "http://www.w3.org/TR/2001/REC-SVG-20010904/DTD/svg10.dtd">
<svg version="1.0" xmlns="http://www.w3.org/2000/svg"
 width="2048.000000pt" height="2048.000000pt" viewBox="0 0 2048.000000 2048.000000"
 preserveAspectRatio="xMidYMid meet">
<metadata>
Created by potrace 1.14, written by Peter Selinger 2001-2017
</metadata>
<g transform="translate(0.000000,2048.000000) scale(0.100000,-0.100000)"
fill="#000000" stroke="none">
<path d="M17496 16942 c-3 -6 -17 -9 -31 -7 -14 1 -25 -2 -25 -8 0 -5 -7 -4
-15 3 -12 10 -15 10 -15 0 0 -9 -4 -9 -13 -2 -8 7 -18 7 -27 2 -8 -5 -18 -6
-22 -4 -4 3 -8 1 -8 -5 0 -10 -37 -7 -48 4 -3 3 -14 -3 -25 -12 -11 -10 -17
-13 -14 -7 4 7 0 15 -9 18 -8 3 -12 2 -9 -4 3 -6 -2 -10 -12 -11 -37 -1 -108
-11 -112 -14 -2 -3 -13 0 -24 6 -14 8 -18 8 -12 0 4 -8 -6 -12 -32 -11 -66 1
-77 -1 -89 -11 -8 -7 -14 -6 -19 1 -5 8 -11 8 -21 -1 -11 -9 -14 -8 -14 2 0
11 -2 11 -9 0 -8 -13 -12 -13 -27 0 -15 12 -17 12 -9 0 6 -11 4 -13 -8 -8 -10
4 -17 2 -17 -5 0 -7 -4 -7 -14 1 -9 8 -16 8 -20 2 -4 -5 -17 -8 -31 -5 -13 2
-27 0 -30 -6 -4 -7 -12 -7 -24 0 -10 5 -21 7 -24 3 -6 -5 -48 -12 -92 -15 -11
-1 -26 -6 -34 -12 -12 -9 -13 -7 -7 8 7 20 7 20 -15 0 -14 -11 -19 -13 -14 -4
7 13 6 13 -7 2 -13 -10 -17 -10 -21 0 -4 10 -6 10 -6 -1 -1 -11 -4 -11 -18 0
-14 12 -16 12 -9 0 7 -11 0 -13 -33 -9 -22 2 -41 0 -41 -5 0 -5 -6 -7 -14 -4
-8 3 -17 3 -20 -1 -10 -10 -46 -9 -46 1 0 5 -8 3 -17 -4 -14 -12 -16 -12 -8 0
6 11 5 12 -6 5 -8 -5 -32 -10 -53 -11 -22 -1 -43 -8 -48 -15 -6 -10 -8 -10 -8
2 0 13 -1 13 -10 0 -9 -14 -15 -7 -11 14 1 5 -4 4 -12 -2 -8 -7 -17 -9 -20 -5
-4 3 -7 2 -7 -4 0 -5 -20 -9 -45 -8 -25 0 -45 -3 -45 -8 0 -4 -5 -5 -10 -2 -6
4 -8 12 -4 18 3 7 -1 3 -10 -7 -13 -17 -18 -17 -33 -5 -14 12 -16 12 -8 0 6
-11 4 -13 -7 -8 -9 3 -21 0 -27 -6 -8 -8 -11 -7 -11 4 0 11 -2 11 -9 1 -4 -8
-12 -14 -16 -14 -4 0 -12 6 -16 14 -6 9 -9 10 -9 1 0 -7 -7 -10 -15 -7 -8 4
-15 1 -15 -6 0 -10 -3 -10 -15 0 -11 9 -15 9 -15 1 0 -9 -5 -9 -20 -1 -15 8
-20 8 -20 -1 0 -7 -3 -9 -7 -6 -3 4 -13 1 -21 -6 -13 -10 -14 -9 -7 3 8 13 7
13 -8 1 -11 -8 -17 -9 -17 -3 0 6 -7 9 -15 6 -8 -4 -12 -11 -8 -18 3 -6 -4 -2
-17 9 -13 11 -20 15 -17 9 8 -14 -20 -27 -28 -14 -4 7 -13 7 -24 0 -10 -5 -21
-7 -24 -4 -3 3 -15 0 -27 -6 -15 -8 -20 -8 -16 -1 4 6 3 11 -3 11 -5 0 -12 -4
-15 -9 -3 -5 -28 -8 -56 -7 -27 0 -50 -1 -50 -4 0 -3 -12 -5 -27 -4 -16 1 -35
-2 -44 -7 -9 -5 -21 -3 -27 3 -9 9 -12 9 -12 -2 0 -11 -3 -11 -12 -2 -9 9 -16
8 -29 -4 -11 -10 -19 -12 -23 -5 -4 6 -16 7 -29 3 -12 -5 -33 -8 -47 -7 -14 0
-28 -4 -32 -10 -5 -6 -8 -4 -8 5 0 13 -1 13 -10 0 -6 -10 -10 -11 -10 -2 0 6
-5 12 -11 12 -5 0 -7 -5 -3 -12 5 -7 3 -8 -6 -3 -7 4 -16 2 -21 -6 -5 -8 -9
-9 -9 -4 0 6 -17 9 -40 7 -22 -2 -38 -7 -35 -11 2 -4 -2 -8 -10 -8 -8 0 -12 4
-9 9 8 12 -10 10 -23 -3 -8 -8 -13 -8 -17 0 -5 8 -13 8 -28 0 -16 -9 -23 -8
-29 2 -7 12 -9 12 -9 0 0 -7 -6 -11 -15 -7 -8 3 -15 0 -15 -7 0 -8 -4 -6 -10
3 -8 12 -10 12 -10 1 0 -11 -3 -11 -17 0 -10 9 -14 9 -10 2 6 -9 -2 -11 -28
-9 -19 2 -38 0 -41 -5 -3 -5 -13 -5 -24 1 -13 7 -21 6 -30 -5 -8 -10 -17 -12
-24 -6 -6 6 -17 6 -24 2 -6 -4 -25 -6 -42 -5 -17 1 -33 -2 -36 -7 -3 -5 -13
-5 -25 1 -12 7 -19 7 -19 1 0 -5 -9 -8 -20 -6 -11 2 -20 1 -20 -3 0 -4 -9 -8
-19 -8 -15 0 -17 3 -9 13 8 10 7 12 -6 7 -9 -3 -16 -10 -16 -15 0 -4 -7 -6
-15 -3 -8 4 -21 1 -28 -4 -8 -7 -18 -7 -27 -2 -8 5 -21 5 -29 1 -20 -9 -32 -8
-50 3 -9 6 -12 5 -7 -2 3 -6 2 -13 -4 -17 -5 -3 -10 -1 -10 4 0 13 -22 10 -32
-4 -5 -6 -8 -5 -8 4 0 11 -3 11 -15 1 -8 -7 -15 -9 -15 -5 0 4 -8 1 -17 -6
-14 -12 -16 -12 -8 0 6 11 4 13 -8 8 -10 -4 -24 -10 -34 -14 -12 -5 -14 -3 -8
8 5 8 0 6 -12 -4 -16 -14 -23 -15 -29 -6 -5 8 -3 10 6 4 8 -5 11 -4 6 3 -4 7
-14 7 -32 -2 -13 -8 -39 -12 -57 -11 -18 2 -38 -2 -44 -7 -9 -7 -13 -7 -13 2
0 10 -4 10 -16 -1 -13 -10 -17 -10 -25 2 -6 10 -9 10 -9 2 0 -7 -3 -12 -7 -12
-5 1 -25 1 -46 0 -28 -1 -36 -4 -31 -13 4 -7 -3 -4 -16 7 -13 11 -20 15 -17 9
8 -14 -20 -27 -28 -14 -4 6 -11 10 -16 10 -6 0 -7 -5 -3 -11 5 -8 1 -8 -14 0
-12 6 -23 7 -26 3 -5 -8 -20 -10 -86 -14 -8 0 -20 -5 -27 -10 -7 -5 -14 -5
-18 2 -3 6 -12 7 -18 3 -11 -6 -45 -10 -134 -14 -22 -1 -31 -5 -27 -12 5 -9 4
-9 -6 0 -7 6 -23 8 -39 4 -14 -4 -41 -6 -58 -4 -19 1 -33 -2 -33 -8 0 -7 -6
-7 -17 2 -11 10 -14 10 -9 2 4 -7 3 -13 -3 -13 -5 0 -13 5 -16 10 -4 7 -13 6
-26 -1 -11 -6 -27 -8 -34 -5 -8 3 -17 2 -19 -3 -3 -4 -25 -7 -50 -6 -26 0 -46
-2 -46 -6 0 -3 -10 -5 -22 -4 -13 1 -29 -2 -35 -8 -7 -5 -13 -5 -13 0 0 5 -9
9 -20 9 -11 0 -20 -4 -20 -9 0 -4 -4 -6 -9 -2 -5 3 -12 1 -16 -5 -4 -6 -12 -7
-18 -3 -17 10 -47 11 -47 1 0 -4 -14 -6 -32 -3 -20 4 -34 1 -39 -7 -7 -11 -9
-11 -9 0 0 8 -5 10 -12 6 -17 -11 -59 -14 -54 -5 3 4 -1 8 -9 8 -8 0 -11 -5
-8 -10 3 -6 -7 -8 -26 -5 -17 2 -31 1 -31 -4 0 -5 -5 -6 -10 -3 -6 4 -18 1
-27 -7 -12 -9 -15 -9 -9 0 4 6 3 12 -3 12 -5 0 -12 -6 -14 -12 -4 -10 -8 -10
-15 1 -8 11 -10 11 -15 0 -4 -11 -6 -11 -6 -1 -1 9 -6 10 -18 4 -10 -5 -26 -8
-35 -7 -10 2 -18 -1 -18 -6 0 -6 -8 -5 -20 1 -17 9 -20 8 -20 -7 0 -15 -2 -16
-10 -3 -9 13 -10 13 -10 0 0 -13 -2 -13 -9 -1 -8 12 -12 12 -25 2 -11 -9 -16
-10 -16 -2 0 6 -5 11 -11 11 -5 0 -8 -4 -5 -8 3 -5 -5 -7 -17 -6 -12 1 -26 3
-30 3 -5 1 -6 5 -3 9 3 5 -9 6 -26 4 -17 -3 -28 -1 -25 4 3 5 -15 10 -39 11
-25 1 -43 -1 -40 -6 3 -4 -1 -8 -9 -8 -8 0 -15 4 -15 9 0 4 -7 8 -16 8 -9 0
-13 -5 -9 -12 4 -7 0 -5 -8 5 -11 14 -16 15 -20 5 -4 -9 -6 -9 -6 2 -1 14 -18
19 -68 23 -7 0 -13 4 -13 9 0 5 -4 7 -9 3 -5 -3 -13 0 -16 6 -4 5 -13 8 -21 5
-8 -3 -14 -1 -14 3 0 5 -12 8 -26 6 -15 -1 -28 3 -31 11 -3 8 -20 14 -40 14
-19 0 -32 4 -29 9 4 5 -2 8 -11 6 -10 -1 -29 4 -42 12 -18 12 -22 12 -15 2 6
-12 5 -12 -9 0 -14 11 -17 11 -17 0 0 -11 -2 -11 -9 1 -6 8 -7 18 -4 24 4 5 1
6 -8 1 -23 -15 -58 -10 -75 11 -8 10 -13 13 -9 7 8 -16 -11 -17 -21 -2 -4 8
-9 7 -15 -2 -7 -11 -9 -9 -9 6 0 15 -2 17 -9 6 -6 -9 -11 -10 -15 -3 -4 6 -13
9 -20 6 -8 -3 -17 -1 -21 5 -3 6 -16 11 -29 11 -12 0 -26 3 -30 8 -4 4 -20 8
-34 8 -49 3 -53 4 -48 12 6 11 -25 9 -43 -3 -10 -5 -12 -4 -7 3 5 8 -1 12 -18
12 -13 0 -27 6 -29 13 -4 9 -6 9 -6 -1 -1 -10 -5 -10 -23 0 -13 7 -31 11 -42
9 -12 -2 -16 1 -11 9 6 9 3 10 -10 3 -22 -13 -57 -5 -48 11 4 6 -1 5 -10 -3
-9 -7 -17 -9 -17 -3 0 5 -10 8 -22 4 -16 -4 -19 -2 -13 9 8 12 6 12 -8 0 -9
-7 -17 -9 -17 -3 0 5 -18 9 -40 8 -22 0 -40 3 -40 7 0 5 -9 5 -20 2 -12 -4
-20 -2 -20 5 0 6 -8 10 -17 8 -10 -1 -24 1 -30 5 -8 5 -13 3 -13 -3 0 -6 -5
-8 -10 -5 -6 4 -7 11 -4 17 5 7 2 8 -7 2 -19 -12 -33 -12 -41 1 -5 6 -8 4 -8
-5 0 -12 -2 -12 -9 -2 -5 9 -34 15 -77 17 -78 4 -100 8 -110 18 -4 4 -13 2
-21 -4 -7 -6 -13 -7 -13 -2 0 5 -12 8 -27 7 -16 -1 -36 3 -47 8 -14 8 -17 7
-10 -4 6 -11 5 -11 -9 1 -14 11 -17 11 -17 0 0 -9 -3 -10 -8 -3 -4 6 -34 12
-67 13 -33 2 -66 8 -74 14 -12 9 -13 9 -7 0 4 -7 2 -13 -3 -13 -6 0 -11 5 -11
11 0 8 -4 8 -13 1 -8 -7 -18 -7 -27 -2 -9 5 -19 5 -27 -2 -8 -6 -13 -6 -13 -1
0 5 -24 10 -52 10 -110 1 -163 6 -177 17 -12 9 -13 8 -6 -3 6 -11 2 -13 -19
-7 -21 5 -26 4 -20 -6 6 -11 5 -11 -8 0 -12 9 -18 10 -23 2 -5 -8 -12 -7 -24
4 -10 9 -21 13 -25 9 -3 -4 -16 -8 -27 -10 -14 -2 -18 1 -13 9 6 10 4 10 -8 0
-13 -10 -17 -10 -21 0 -4 10 -7 10 -15 -1 -7 -10 -11 -10 -17 -1 -6 9 -10 9
-16 -1 -7 -12 -9 -12 -9 0 0 11 -3 11 -15 1 -12 -10 -19 -10 -27 -2 -7 7 -19
7 -35 1 -13 -5 -22 -6 -20 -1 5 6 -72 8 -98 2 -5 -1 -12 -1 -15 0 -20 7 -39 7
-34 -2 4 -6 -2 -8 -16 -3 -17 6 -21 4 -14 -6 6 -11 5 -12 -7 -2 -9 7 -20 8
-29 3 -8 -5 -18 -6 -24 -3 -16 10 -76 10 -76 0 0 -6 -5 -6 -12 0 -7 5 -24 8
-38 6 -14 -2 -38 -5 -55 -6 -16 -1 -33 -6 -37 -12 -5 -6 -8 -6 -8 1 0 12 -29
12 -48 0 -6 -4 -12 -4 -12 1 0 4 -5 1 -10 -7 -7 -11 -10 -11 -10 -2 0 7 -4 10
-10 7 -5 -3 -10 0 -10 7 0 9 -3 9 -8 2 -6 -9 -59 -17 -114 -16 -10 1 -20 -3
-23 -9 -4 -5 -13 -5 -25 1 -13 7 -20 6 -23 -3 -4 -9 -8 -9 -15 2 -7 9 -11 10
-13 2 -3 -7 -24 -12 -49 -13 -25 0 -51 -5 -58 -10 -7 -6 -12 -7 -12 -1 0 5 -7
10 -15 10 -8 0 -11 -5 -8 -10 4 -6 -5 -8 -21 -5 -14 3 -26 1 -26 -5 0 -5 -6
-5 -14 2 -11 9 -15 8 -20 -5 -5 -12 -10 -14 -19 -5 -10 8 -17 7 -26 -2 -9 -9
-14 -9 -20 1 -7 11 -9 10 -14 -3 -5 -13 -11 -14 -27 -5 -12 7 -20 7 -20 1 0
-5 -9 -8 -20 -6 -11 2 -20 1 -20 -4 0 -4 -12 -7 -27 -6 -16 0 -34 -5 -41 -12
-8 -7 -19 -10 -25 -6 -19 12 -37 12 -37 1 0 -6 -7 -8 -15 -4 -8 3 -15 1 -15
-5 0 -6 -4 -7 -10 -4 -5 3 -19 1 -30 -5 -15 -8 -20 -8 -20 1 0 8 -4 9 -13 0
-8 -6 -17 -8 -20 -4 -4 3 -7 2 -7 -4 0 -6 -9 -9 -20 -6 -13 3 -20 0 -20 -8 0
-11 -2 -11 -10 1 -9 13 -10 13 -10 0 0 -13 -1 -13 -10 0 -6 10 -10 11 -10 3 0
-7 -11 -13 -24 -13 -13 0 -27 -6 -29 -12 -4 -10 -6 -10 -6 -1 -1 7 -8 10 -16
7 -8 -4 -12 -11 -8 -18 4 -6 -1 -5 -10 3 -12 9 -17 10 -17 2 0 -7 -4 -9 -10
-6 -5 3 -10 0 -10 -7 0 -10 -2 -10 -9 1 -5 8 -11 9 -15 3 -3 -6 -17 -9 -31 -7
-14 1 -30 -4 -36 -11 -5 -7 -19 -11 -30 -9 -10 2 -19 -1 -19 -7 0 -5 -7 -7
-16 -4 -9 4 -22 2 -28 -2 -10 -8 -47 -20 -85 -28 -8 -1 -17 -8 -21 -14 -6 -9
-9 -9 -12 0 -3 10 -7 10 -18 -1 -8 -8 -29 -14 -47 -14 -17 1 -30 -2 -27 -6 5
-8 -40 -24 -79 -27 -10 -1 -16 -6 -13 -11 3 -4 -6 -6 -21 -3 -19 4 -24 2 -18
-7 5 -9 1 -12 -11 -10 -23 3 -64 -9 -64 -20 0 -3 -9 -8 -20 -9 -11 -1 -29 -3
-40 -4 -11 -1 -20 -6 -20 -11 0 -4 -4 -5 -10 -2 -5 3 -10 1 -10 -5 0 -6 -4 -8
-10 -5 -5 3 -10 2 -10 -3 0 -5 -6 -9 -12 -9 -7 0 -33 -9 -57 -21 -24 -12 -48
-19 -52 -16 -5 3 -9 1 -9 -5 0 -5 -14 -12 -30 -16 -17 -4 -30 -11 -30 -16 0
-5 -12 -9 -26 -9 -16 0 -23 -4 -18 -12 5 -7 3 -8 -5 -4 -7 5 -19 0 -27 -10 -9
-11 -13 -14 -10 -7 4 7 -1 10 -11 9 -9 -2 -19 -8 -21 -14 -2 -7 -10 -12 -18
-12 -9 0 -13 -4 -10 -9 4 -5 -2 -7 -12 -5 -9 3 -27 -4 -38 -15 -15 -13 -25
-16 -32 -9 -6 6 -12 6 -17 -3 -6 -8 -4 -10 5 -4 9 5 11 4 6 -3 -4 -7 -16 -12
-27 -12 -10 0 -19 -5 -19 -11 0 -5 -4 -7 -10 -4 -5 3 -10 1 -10 -5 0 -6 -5 -8
-12 -4 -8 5 -9 1 -4 -12 6 -15 5 -17 -5 -6 -18 17 -32 15 -25 -4 3 -8 2 -12
-3 -9 -5 3 -12 1 -16 -5 -4 -6 -11 -8 -16 -5 -5 4 -9 1 -9 -5 0 -6 -4 -9 -9
-6 -5 3 -11 -1 -15 -9 -3 -8 -12 -12 -21 -9 -8 3 -15 1 -15 -6 0 -6 -5 -8 -10
-5 -5 3 -10 2 -10 -4 0 -9 -20 -21 -87 -55 -13 -6 -23 -14 -23 -18 0 -5 -6 -8
-12 -8 -7 0 -29 -14 -48 -30 -19 -17 -41 -28 -48 -25 -8 3 -10 0 -6 -7 5 -8 1
-9 -12 -4 -10 4 -15 4 -12 0 12 -11 -20 -34 -38 -27 -13 5 -15 3 -9 -7 6 -10
4 -12 -8 -7 -9 3 -18 1 -21 -6 -3 -8 -5 -8 -5 2 -1 11 -4 11 -16 1 -11 -9 -15
-10 -15 -1 0 8 -5 7 -15 -3 -16 -15 -49 -11 -39 5 3 5 -2 6 -10 3 -9 -3 -13
-11 -10 -16 4 -6 -3 -5 -15 1 -16 9 -21 9 -21 -1 0 -9 -3 -9 -10 2 -5 8 -10
10 -10 4 0 -7 -17 -11 -45 -9 -25 1 -48 -2 -52 -8 -3 -5 -8 -5 -13 2 -3 7 -14
9 -23 5 -9 -3 -14 -11 -10 -18 4 -6 -1 -5 -10 3 -9 7 -17 10 -17 7 0 -4 -9 -2
-19 4 -14 7 -22 7 -26 0 -4 -6 -10 -8 -14 -6 -4 3 -13 1 -21 -4 -9 -5 -19 -5
-27 2 -8 6 -13 6 -13 1 0 -5 -7 -10 -15 -10 -8 0 -15 5 -15 11 0 5 -7 1 -15
-10 -10 -13 -14 -14 -15 -5 0 11 -3 11 -17 0 -15 -12 -16 -12 -8 1 7 13 6 13
-7 2 -13 -10 -17 -10 -21 0 -4 10 -6 10 -6 -1 -1 -11 -4 -11 -16 -1 -11 9 -15
9 -15 1 0 -9 -6 -9 -22 0 -22 12 -22 11 -8 -6 14 -17 14 -17 -6 -7 -12 6 -26
7 -34 2 -9 -5 -19 -5 -27 2 -8 6 -13 7 -13 1 0 -11 -42 -9 -61 3 -7 4 -10 3
-6 -3 4 -6 -2 -13 -13 -16 -13 -3 -18 -1 -13 6 4 7 -1 6 -10 -2 -14 -11 -17
-11 -17 0 0 11 -2 11 -10 -1 -9 -13 -10 -13 -10 0 0 13 -1 13 -10 0 -9 -13
-10 -13 -10 0 0 13 -1 13 -10 0 -9 -13 -10 -13 -10 0 0 13 -1 13 -10 0 -9 -13
-10 -13 -10 0 0 10 -3 11 -8 4 -4 -7 -32 -12 -62 -13 -30 -1 -63 -2 -72 -2
-10 0 -20 -5 -24 -10 -4 -6 -11 -6 -20 2 -11 9 -14 8 -14 -2 0 -8 -6 -6 -16 7
-8 10 -13 14 -10 7 4 -6 2 -14 -4 -18 -5 -3 -10 -1 -10 6 0 8 -5 7 -17 -2 -14
-12 -15 -12 -9 -1 7 11 4 12 -10 4 -28 -15 -36 -15 -45 0 -7 11 -9 11 -9 0 0
-8 -10 -13 -28 -12 -45 3 -54 1 -46 -12 6 -9 3 -9 -9 1 -9 7 -23 11 -31 8 -7
-3 -19 0 -26 6 -9 9 -11 9 -7 1 4 -7 0 -15 -9 -18 -8 -3 -12 -2 -9 4 7 11 -30
8 -41 -3 -12 -12 -26 -8 -18 5 5 7 3 8 -7 2 -8 -5 -36 -9 -64 -10 -68 -3 -67
-2 -59 -16 6 -9 3 -9 -9 0 -18 15 -79 23 -71 10 5 -8 -12 -12 -31 -8 -30 6
-93 5 -88 -2 2 -5 -7 -6 -21 -2 -18 4 -26 2 -26 -7 -1 -9 -6 -7 -15 5 -11 14
-15 16 -15 5 0 -8 -11 -15 -25 -15 -14 -1 -22 2 -19 8 4 6 -2 5 -14 -1 -15 -8
-23 -8 -27 0 -5 7 -13 5 -25 -6 -10 -9 -21 -12 -24 -7 -3 6 -20 7 -40 2 -20
-4 -39 -3 -44 2 -6 6 -12 5 -17 -3 -6 -8 -4 -10 5 -4 9 5 11 4 6 -4 -4 -6 -12
-9 -17 -5 -18 10 -59 12 -59 1 0 -5 -7 -4 -15 3 -10 8 -19 9 -27 3 -7 -5 -25
-9 -40 -8 -16 0 -28 -4 -28 -10 0 -6 -3 -7 -8 0 -10 14 -32 17 -32 5 0 -5 -6
-7 -14 -4 -8 3 -17 0 -21 -6 -5 -8 -13 -6 -28 7 -11 10 -17 13 -14 6 9 -14
-32 -14 -51 0 -9 7 -11 6 -7 -4 4 -12 -6 -14 -50 -13 -36 2 -55 -2 -55 -9 0
-7 -4 -6 -10 3 -9 13 -11 13 -20 0 -8 -13 -11 -13 -19 -1 -5 8 -14 10 -22 5
-22 -13 -42 -14 -58 -1 -12 9 -13 9 -7 0 4 -7 2 -13 -3 -13 -6 0 -11 6 -11 13
0 9 -2 9 -9 -1 -4 -7 -12 -12 -17 -11 -5 1 -11 0 -14 -1 -18 -7 -60 -4 -60 5
0 5 -7 1 -15 -9 -14 -18 -20 -15 -15 9 1 6 -4 5 -11 -2 -6 -6 -18 -9 -27 -6
-11 5 -13 3 -7 -8 7 -11 5 -11 -10 1 -17 14 -18 13 -11 -4 7 -20 7 -20 -15 0
-12 10 -19 13 -15 7 9 -16 -6 -17 -22 -1 -9 9 -12 9 -12 0 0 -7 -10 -10 -22
-9 -12 2 -39 1 -60 -3 -21 -4 -41 -3 -44 1 -3 5 -12 2 -20 -6 -11 -11 -20 -12
-34 -5 -13 7 -21 7 -25 0 -4 -7 -13 -6 -27 1 -15 8 -19 8 -14 0 4 -6 3 -11 -3
-11 -5 0 -12 6 -14 13 -4 8 -8 9 -14 1 -4 -5 -28 -11 -53 -11 -99 -2 -101 -3
-94 -15 6 -10 4 -10 -7 0 -7 6 -19 12 -27 12 -8 0 -10 -5 -6 -12 6 -10 5 -10
-7 -1 -11 9 -19 9 -26 2 -8 -8 -13 -8 -17 0 -4 6 -12 11 -17 11 -6 0 -7 -6 -3
-12 5 -9 2 -9 -9 1 -13 10 -17 10 -17 1 0 -9 -4 -9 -17 1 -9 8 -14 9 -10 2 5
-8 -5 -11 -33 -9 -24 2 -40 -2 -40 -8 0 -6 -5 -4 -10 4 -8 12 -10 12 -10 1 0
-10 -3 -11 -14 -2 -11 9 -16 9 -22 0 -5 -8 -3 -10 7 -4 8 5 10 4 6 0 -10 -11
-39 -16 -32 -5 3 4 -4 10 -15 13 -11 3 -23 0 -27 -5 -4 -7 -1 -8 7 -3 9 5 11
4 6 -4 -6 -9 -11 -9 -22 0 -8 6 -14 8 -14 4 0 -4 -8 -1 -17 6 -10 8 -14 9 -10
2 11 -18 -10 -25 -34 -12 -15 8 -19 8 -15 0 10 -15 -17 -14 -33 2 -9 7 -11 7
-8 1 4 -7 0 -14 -7 -17 -8 -3 -17 -1 -20 6 -3 9 -5 9 -5 0 -1 -6 -10 -9 -21
-6 -13 3 -20 0 -21 -8 0 -8 -4 -5 -9 6 -5 11 -9 15 -9 8 -1 -6 -10 -9 -23 -5
-16 4 -19 2 -13 -9 5 -8 -2 -5 -14 5 -15 14 -20 15 -16 5 4 -10 -1 -15 -15
-15 -11 0 -20 4 -20 9 0 5 -8 3 -17 -4 -15 -12 -16 -12 -8 1 7 13 6 13 -7 2
-13 -10 -17 -10 -21 0 -4 9 -6 10 -6 1 -1 -7 -8 -10 -16 -7 -9 4 -15 1 -15 -7
0 -8 -6 -5 -15 7 -9 12 -13 13 -10 4 4 -11 -1 -16 -15 -16 -11 0 -20 5 -20 11
0 5 -5 3 -10 -5 -7 -11 -10 -11 -10 -2 0 9 -5 10 -19 2 -14 -7 -22 -7 -26 1
-5 7 -14 4 -28 -8 -11 -10 -17 -12 -13 -5 9 15 1 15 -26 1 -16 -9 -19 -8 -13
2 6 9 3 10 -11 4 -31 -13 -78 -14 -93 -2 -12 10 -13 9 -7 -2 7 -11 1 -13 -28
-9 -20 2 -36 1 -36 -2 0 -4 -15 -6 -32 -5 -18 1 -36 -3 -40 -9 -5 -8 -8 -7 -8
2 0 10 -5 10 -21 1 -12 -6 -19 -7 -16 -2 3 5 -3 9 -13 9 -10 0 -17 -3 -14 -7
7 -11 -50 -7 -65 5 -12 9 -14 8 -9 -5 5 -12 1 -15 -18 -11 -14 2 -21 9 -17 16
3 6 -2 4 -13 -5 -10 -9 -30 -15 -43 -13 -14 3 -28 -1 -33 -8 -4 -7 -8 -8 -8
-3 0 6 -9 11 -20 12 -11 1 -18 -2 -15 -7 6 -10 -21 -7 -31 3 -4 4 -14 2 -21
-5 -11 -9 -16 -9 -23 1 -5 10 -9 10 -15 2 -5 -9 -11 -9 -23 1 -13 11 -14 11
-8 0 6 -10 -2 -13 -31 -12 -75 0 -108 -3 -115 -14 -5 -8 -8 -7 -8 2 0 6 -7 12
-15 12 -8 0 -15 -4 -15 -8 0 -5 -7 -9 -15 -9 -8 0 -15 5 -15 10 0 6 -5 6 -12
0 -7 -6 -23 -9 -35 -8 -14 1 -25 -5 -29 -17 -3 -10 -9 -16 -14 -13 -5 3 -7 -5
-5 -17 8 -41 27 -78 40 -78 7 0 16 -7 19 -16 4 -9 9 -15 12 -12 7 7 64 -48 64
-62 0 -6 3 -9 8 -7 10 5 42 -30 34 -38 -4 -4 0 -5 8 -3 9 2 14 -3 12 -12 -2
-8 0 -12 3 -8 10 10 47 -11 40 -22 -3 -5 4 -11 14 -15 11 -3 23 -15 26 -26 6
-17 17 -24 38 -20 5 1 6 -2 3 -7 -3 -5 6 -14 19 -20 15 -7 25 -20 25 -32 0
-11 7 -20 15 -20 8 0 15 -4 15 -10 0 -5 7 -10 16 -10 8 0 12 -5 9 -10 -3 -5 1
-10 10 -10 9 0 13 -4 10 -10 -3 -5 0 -10 8 -10 8 0 24 -15 36 -32 11 -18 23
-32 26 -30 15 7 25 0 25 -19 0 -19 2 -20 17 -8 9 8 14 9 10 2 -9 -15 21 -45
36 -36 7 3 9 3 5 -2 -4 -4 6 -20 22 -35 16 -15 26 -30 23 -34 -3 -3 4 -6 17
-6 13 0 21 -3 17 -6 -8 -8 18 -34 33 -34 6 0 8 -4 5 -10 -3 -5 1 -10 10 -10 9
0 13 -4 10 -10 -3 -5 1 -10 10 -10 9 0 13 -4 10 -10 -3 -5 -2 -10 3 -10 16 0
61 -47 54 -56 -4 -5 1 -2 10 5 15 11 17 10 13 -9 -2 -13 -2 -20 2 -17 3 3 18
-6 34 -21 15 -15 44 -40 63 -56 19 -17 33 -33 30 -38 -5 -7 11 -12 29 -9 5 1
6 -2 4 -6 -6 -10 19 -34 27 -26 3 4 6 1 6 -6 0 -16 25 -41 40 -41 6 0 8 -4 5
-10 -3 -5 1 -10 10 -10 8 0 18 -7 21 -15 4 -8 10 -12 15 -9 5 3 8 0 7 -7 -2
-7 7 -18 20 -24 13 -7 23 -15 23 -19 -1 -3 1 -5 5 -3 3 1 12 -13 21 -31 13
-26 18 -30 30 -20 8 6 13 7 12 2 -4 -21 2 -34 14 -34 7 0 19 -9 27 -19 7 -11
18 -17 24 -14 6 3 8 3 4 -2 -10 -10 11 -37 23 -29 5 3 6 -2 3 -11 -5 -11 -2
-14 12 -8 12 4 15 3 10 -5 -4 -7 -2 -12 5 -12 7 0 10 -3 6 -6 -9 -10 16 -32
31 -27 8 4 10 0 6 -11 -4 -11 -1 -16 10 -16 9 0 16 -5 16 -11 0 -5 4 -8 9 -5
5 3 11 -1 15 -9 3 -8 13 -15 22 -15 10 0 15 -3 12 -6 -7 -6 39 -54 52 -54 9 0
14 -15 11 -33 -1 -5 3 -6 9 -2 11 7 97 -74 92 -88 -1 -4 1 -6 6 -3 5 3 14 -4
22 -14 8 -10 17 -17 22 -14 4 3 8 -2 8 -10 0 -9 7 -16 15 -16 9 0 20 -10 25
-22 5 -13 9 -19 9 -15 1 5 28 -18 61 -51 32 -33 62 -57 65 -54 3 3 5 -3 5 -13
0 -10 3 -16 6 -13 7 8 73 -55 67 -64 -2 -5 2 -8 9 -8 8 0 20 -9 28 -20 8 -11
21 -20 28 -20 9 0 12 -6 8 -16 -3 -8 -2 -13 2 -10 13 8 52 -23 52 -40 0 -8 6
-13 13 -11 6 1 11 -4 10 -10 -2 -7 7 -13 19 -13 12 0 19 -3 15 -6 -7 -8 25
-44 34 -38 4 2 10 -5 14 -16 3 -11 13 -20 21 -20 8 0 13 -4 10 -9 -3 -5 4 -11
15 -14 12 -3 18 -10 14 -16 -3 -6 -1 -11 4 -11 6 0 21 -11 33 -25 11 -13 26
-21 31 -18 6 4 8 0 4 -10 -5 -13 -1 -17 14 -17 15 0 19 -5 15 -16 -3 -8 -2
-13 2 -10 4 3 14 -4 21 -16 10 -16 10 -19 -1 -12 -9 6 -9 3 1 -10 18 -22 21
-54 6 -60 -6 -2 -11 -20 -11 -39 1 -25 -2 -33 -12 -30 -7 3 -12 0 -10 -8 2 -8
-2 -13 -9 -12 -7 2 -10 -3 -7 -11 3 -7 -2 -16 -11 -20 -9 -3 -13 -10 -10 -16
3 -5 -2 -10 -12 -10 -15 0 -16 -2 -3 -10 13 -8 13 -10 -2 -10 -15 0 -35 -34
-30 -52 1 -5 -5 -8 -13 -8 -9 0 -12 -6 -9 -15 4 -8 2 -15 -4 -15 -5 0 -12 -9
-15 -21 -4 -13 -10 -18 -18 -13 -7 4 -10 3 -5 -4 3 -6 1 -14 -5 -17 -5 -4 -8
-13 -5 -21 3 -8 -1 -14 -9 -14 -9 0 -15 -10 -15 -26 0 -18 -4 -24 -13 -21 -8
3 -14 -1 -15 -9 -1 -8 -3 -20 -4 -28 -1 -8 -7 -12 -14 -9 -9 3 -12 -2 -9 -15
2 -11 -3 -23 -11 -26 -8 -3 -11 -12 -7 -22 4 -11 3 -15 -5 -10 -6 3 -14 -3
-18 -16 -3 -12 -12 -28 -18 -35 -34 -38 -35 -40 -23 -52 7 -7 7 -11 2 -9 -6 2
-10 0 -10 -4 0 -4 -9 -14 -20 -23 -11 -9 -13 -13 -5 -9 8 4 5 -3 -8 -16 -13
-12 -21 -29 -18 -37 4 -8 1 -11 -5 -8 -6 4 -13 -2 -16 -14 -3 -11 -9 -18 -14
-15 -5 3 -6 -2 -3 -10 3 -9 1 -16 -5 -16 -6 0 -11 -7 -11 -15 0 -8 -5 -15 -11
-15 -5 0 -7 -4 -4 -10 3 -5 1 -10 -5 -10 -6 0 -8 -4 -5 -10 3 -5 1 -10 -4 -10
-6 0 -11 -7 -11 -15 0 -8 -4 -15 -10 -15 -5 0 -10 -7 -10 -15 0 -9 -6 -18 -14
-21 -9 -3 -12 -12 -9 -21 5 -12 3 -14 -7 -8 -10 6 -12 4 -7 -8 4 -11 1 -17 -8
-17 -8 0 -12 -6 -9 -14 3 -7 -2 -16 -11 -20 -9 -3 -13 -10 -10 -16 3 -5 2 -10
-3 -10 -6 0 -13 -11 -16 -25 -4 -16 -11 -23 -18 -19 -6 4 -8 3 -4 -4 3 -6 2
-13 -4 -17 -6 -4 -8 -11 -5 -16 4 -5 2 -9 -4 -9 -6 0 -13 -11 -17 -25 -3 -14
-10 -25 -15 -25 -5 0 -9 -9 -9 -20 0 -11 -4 -20 -10 -20 -5 0 -10 -7 -10 -16
0 -8 -4 -12 -10 -9 -6 3 -7 -1 -4 -9 3 -9 1 -16 -5 -16 -6 0 -10 -6 -8 -12 1
-7 -3 -12 -10 -11 -7 2 -10 -4 -7 -12 4 -8 1 -15 -6 -15 -9 0 -9 -4 1 -17 12
-15 12 -16 -3 -10 -13 4 -18 1 -18 -10 0 -9 -8 -25 -18 -36 -11 -13 -12 -17
-3 -12 9 5 5 -5 -7 -22 -12 -17 -22 -38 -22 -46 0 -9 -5 -17 -10 -19 -6 -2
-12 -13 -13 -25 0 -12 -3 -20 -6 -18 -2 3 -10 -3 -17 -13 -9 -13 -9 -19 -1
-24 8 -5 6 -8 -6 -8 -11 0 -15 -4 -11 -12 4 -6 -1 -17 -11 -25 -11 -7 -13 -13
-6 -13 7 0 9 -5 6 -10 -4 -6 -12 -7 -18 -3 -7 4 -5 -2 3 -12 9 -11 10 -16 3
-11 -7 4 -14 2 -14 -3 -1 -6 -2 -16 -3 -21 0 -6 -6 -14 -11 -18 -6 -4 -10 -14
-10 -22 0 -8 -2 -17 -5 -20 -12 -12 -31 -52 -21 -45 6 3 11 1 11 -4 0 -6 -7
-11 -15 -11 -8 0 -14 -3 -13 -7 1 -9 -9 -40 -23 -66 -5 -10 -7 -22 -4 -27 4
-6 -2 -10 -12 -10 -14 0 -15 -2 -4 -9 9 -6 10 -10 2 -12 -6 -2 -13 -15 -16
-28 -2 -14 -10 -28 -16 -32 -8 -5 -8 -8 0 -13 8 -5 7 -11 -2 -20 -6 -8 -15
-12 -18 -10 -3 2 -4 -8 -1 -23 3 -18 1 -24 -6 -19 -8 5 -10 1 -5 -10 4 -11 3
-15 -4 -11 -7 5 -9 0 -6 -13 3 -11 1 -20 -5 -20 -6 0 -9 -9 -7 -20 2 -11 -1
-20 -7 -20 -6 0 -8 -9 -5 -20 3 -11 1 -18 -4 -14 -5 3 -9 -4 -9 -15 0 -12 -6
-21 -12 -21 -10 0 -10 -2 0 -9 11 -7 10 -9 -3 -14 -13 -5 -14 -11 -5 -27 6
-11 7 -19 1 -18 -5 2 -9 -1 -9 -6 0 -5 -6 -13 -14 -17 -10 -7 -10 -9 2 -9 11
-1 10 -4 -4 -15 -11 -8 -14 -15 -8 -15 9 0 8 -7 -3 -23 -8 -13 -12 -27 -8 -30
3 -4 0 -7 -8 -7 -11 0 -11 -2 1 -10 13 -9 13 -10 0 -10 -13 0 -13 -1 0 -10 13
-8 13 -10 -2 -10 -9 0 -20 -5 -24 -12 -4 -7 -3 -8 4 -4 7 4 12 3 12 -3 0 -5
-4 -12 -9 -15 -5 -4 -8 -17 -6 -31 1 -15 -4 -29 -14 -35 -13 -8 -14 -9 -1 -10
11 0 12 -2 3 -8 -7 -4 -13 -22 -15 -40 -1 -18 -6 -32 -11 -32 -4 0 -5 -5 -2
-10 3 -6 2 -10 -3 -10 -5 0 -8 -12 -6 -26 3 -30 -5 -56 -15 -49 -4 2 -5 -9 -3
-26 3 -20 0 -29 -9 -29 -11 0 -11 -3 1 -11 11 -8 12 -12 3 -16 -7 -2 -13 -18
-13 -34 0 -22 -4 -28 -12 -23 -10 6 -10 4 0 -8 9 -12 10 -18 2 -23 -6 -4 -10
-19 -8 -35 1 -15 -3 -34 -10 -43 -9 -11 -10 -17 -2 -22 8 -5 8 -11 -1 -21 -6
-8 -9 -23 -6 -34 3 -12 1 -18 -5 -14 -6 4 -8 -1 -3 -15 4 -14 2 -21 -7 -21
-10 0 -9 -3 2 -10 13 -9 13 -10 0 -10 -13 0 -13 -1 0 -10 12 -7 12 -10 1 -10
-7 0 -11 -6 -8 -15 4 -8 2 -17 -3 -20 -5 -3 -7 -12 -3 -20 3 -8 0 -15 -7 -15
-6 0 -8 -5 -5 -10 4 -6 11 -7 17 -4 6 4 4 -3 -5 -16 -13 -19 -14 -27 -4 -39
10 -12 9 -13 -2 -6 -11 6 -13 3 -9 -12 3 -12 2 -27 -3 -34 -4 -7 -3 -22 3 -32
8 -15 7 -18 -3 -12 -8 6 -11 4 -6 -7 3 -9 0 -21 -6 -28 -9 -10 -9 -11 1 -6 13
8 17 -10 4 -18 -5 -3 -7 -25 -6 -50 1 -27 -2 -46 -8 -46 -7 0 -6 -5 1 -14 9
-11 9 -15 -1 -19 -10 -4 -10 -6 0 -6 6 -1 12 -6 12 -12 0 -5 -4 -8 -9 -4 -5 3
-13 0 -17 -6 -4 -7 -3 -9 3 -6 6 4 13 0 17 -8 3 -8 0 -15 -7 -15 -8 0 -6 -4 3
-10 8 -5 10 -10 5 -10 -6 0 -11 -9 -11 -19 0 -11 4 -17 8 -15 4 3 8 0 8 -5 0
-6 -5 -11 -12 -11 -6 0 -8 -3 -5 -7 4 -3 2 -12 -4 -19 -7 -8 -7 -14 1 -19 7
-4 7 -12 0 -24 -5 -10 -6 -21 -3 -25 11 -11 9 -96 -2 -96 -7 0 -7 -3 0 -8 6
-4 10 -16 10 -27 0 -11 -4 -23 -10 -27 -7 -5 -6 -8 1 -8 14 0 14 -60 0 -60 -6
0 -4 -4 4 -9 10 -7 14 -26 13 -62 -1 -29 3 -59 9 -66 8 -10 7 -12 -5 -7 -12 4
-14 1 -10 -15 3 -12 10 -21 17 -21 7 0 7 -3 1 -8 -15 -11 -12 -45 5 -60 8 -8
9 -11 3 -7 -11 5 -19 -19 -14 -47 0 -4 -6 -5 -14 -2 -8 4 -15 11 -15 18 0 7
-3 7 -8 1 -10 -14 -32 -17 -32 -5 0 14 -27 12 -33 -2 -4 -8 -6 -7 -6 4 -1 11
-7 15 -23 10 -16 -4 -19 -2 -13 9 8 12 6 12 -8 0 -14 -11 -17 -11 -17 0 0 12
-2 12 -9 0 -6 -9 -10 -10 -12 -2 -3 7 -27 13 -56 14 -28 1 -49 5 -47 8 2 3
-10 6 -27 7 -17 0 -36 6 -44 12 -10 8 -15 8 -20 0 -5 -8 -11 -8 -21 1 -8 6
-14 8 -14 5 0 -4 -9 -2 -20 4 -15 8 -20 8 -20 -2 0 -9 -3 -9 -10 2 -5 8 -12
11 -16 7 -4 -4 -18 0 -32 9 -15 10 -21 11 -17 3 6 -9 3 -10 -11 -4 -10 4 -28
8 -39 9 -11 1 -26 5 -34 10 -11 7 -12 6 -6 -5 8 -12 6 -12 -8 -1 -9 8 -21 11
-27 7 -5 -3 -10 -2 -10 3 0 5 -18 8 -40 7 -26 -2 -38 1 -33 8 4 6 0 8 -9 4 -9
-3 -21 0 -27 6 -8 8 -11 7 -11 -3 0 -10 -5 -9 -19 4 -13 12 -21 14 -26 6 -4
-6 -11 -7 -18 -2 -10 7 -34 11 -84 15 -7 0 -13 3 -13 7 0 4 -16 7 -35 8 -56 3
-65 5 -65 14 0 4 -5 8 -11 8 -5 0 -7 -5 -3 -12 5 -7 3 -8 -5 -4 -7 5 -27 10
-44 13 -18 3 -40 9 -51 15 -13 7 -16 7 -12 -1 4 -6 3 -11 -2 -11 -6 0 -12 6
-15 13 -2 6 -19 11 -38 11 -19 -1 -38 1 -44 4 -10 6 -45 11 -107 15 -20 1 -34
6 -30 11 3 5 -3 6 -13 2 -11 -4 -22 -2 -27 6 -6 11 -8 10 -8 0 0 -7 -5 -10
-10 -7 -6 4 -7 12 -3 18 5 8 2 8 -9 0 -8 -7 -18 -10 -21 -6 -12 12 -57 12 -57
0 0 -8 -3 -7 -9 2 -6 9 -11 10 -15 2 -4 -6 -12 -8 -18 -5 -6 4 -8 2 -4 -4 3
-6 0 -17 -8 -25 -8 -8 -12 -17 -9 -21 4 -3 2 -6 -4 -6 -6 0 -9 -19 -8 -45 2
-28 -1 -43 -7 -39 -6 4 -6 -2 1 -14 13 -25 14 -35 3 -28 -5 3 -9 -1 -9 -9 0
-8 4 -15 9 -15 4 0 8 -5 8 -11 0 -5 -5 -7 -11 -3 -7 4 -7 -1 1 -16 8 -15 8
-20 1 -16 -6 4 -11 3 -11 -3 0 -5 5 -13 10 -16 8 -5 7 -11 -1 -21 -9 -11 -8
-14 2 -14 9 0 10 -3 4 -8 -14 -10 -17 -32 -5 -32 6 0 10 -5 10 -11 0 -5 -4 -8
-8 -5 -4 2 -8 -4 -8 -15 0 -10 4 -19 9 -19 6 0 5 -5 0 -12 -5 -7 -9 -46 -9
-85 1 -43 -3 -73 -9 -73 -5 0 -1 -7 9 -15 11 -8 16 -15 10 -15 -5 0 -1 -5 9
-11 9 -5 17 -18 17 -27 0 -15 2 -15 10 -2 8 13 10 13 10 -1 0 -9 7 -20 16 -23
9 -4 13 -2 8 5 -3 6 5 4 19 -5 20 -13 26 -14 30 -4 4 9 6 10 6 1 1 -7 8 -10
18 -6 11 4 14 3 9 -5 -5 -9 -1 -9 18 -2 14 5 26 6 26 1 0 -5 16 -8 35 -7 25 1
35 -3 35 -14 0 -12 2 -12 9 -1 7 10 13 11 31 1 18 -10 21 -10 14 2 -4 7 3 4
16 -7 13 -11 20 -15 16 -8 -5 9 2 12 23 10 16 -1 27 -5 25 -9 -3 -4 5 -6 16
-5 11 1 20 6 20 11 0 5 7 1 16 -10 8 -10 12 -12 8 -4 -5 12 -4 13 6 3 9 -8 19
-9 30 -3 13 7 22 5 30 -5 15 -18 34 -20 24 -3 -6 10 -4 10 7 2 8 -6 22 -10 32
-9 9 2 17 -1 17 -6 0 -5 9 -9 21 -9 13 0 18 4 14 13 -4 6 1 3 9 -7 9 -11 16
-14 16 -8 0 10 5 10 20 2 15 -8 20 -8 20 2 0 10 3 9 9 -1 5 -8 17 -16 25 -17
9 -1 14 1 11 5 -2 4 2 8 10 8 8 0 12 -4 9 -8 -2 -4 8 -7 23 -7 16 0 40 -5 55
-11 17 -6 29 -7 33 -1 4 6 11 10 16 10 6 0 8 -4 5 -8 -2 -4 16 -8 41 -9 25 -1
50 -6 56 -12 7 -7 17 -7 30 1 16 8 19 7 15 -4 -4 -8 1 -14 12 -14 11 0 16 6
13 16 -3 11 -1 10 10 -3 11 -14 16 -15 20 -5 4 10 6 10 6 -1 1 -11 4 -11 18 0
9 8 14 9 10 3 -9 -15 25 -24 47 -12 11 6 18 5 22 -6 3 -8 12 -12 20 -9 8 3 11
10 8 17 -3 6 2 2 10 -8 12 -15 16 -16 16 -5 0 9 3 10 8 3 4 -6 17 -10 30 -9
12 1 22 -3 22 -9 0 -6 4 -4 10 4 8 13 10 12 15 -1 4 -11 15 -14 35 -11 17 2
38 -2 47 -9 12 -10 14 -10 9 -1 -4 6 -2 12 3 12 6 0 11 -6 11 -12 0 -9 4 -8
10 2 7 11 10 11 10 2 0 -7 8 -12 18 -10 9 1 23 -1 30 -5 6 -5 12 -4 12 2 0 6
16 5 40 -4 30 -11 40 -11 40 -2 0 8 3 8 8 2 4 -6 21 -12 37 -14 17 -1 39 -8
50 -14 18 -9 19 -9 5 8 -14 17 -14 17 16 2 17 -9 35 -13 39 -9 4 4 3 -2 -2
-12 -8 -15 -7 -26 4 -43 8 -12 19 -21 23 -18 5 3 6 -4 3 -15 -3 -12 0 -20 7
-20 9 0 9 -4 -1 -17 -10 -11 -10 -14 -1 -9 8 5 12 0 12 -13 0 -12 5 -21 11
-21 8 0 8 -5 -1 -15 -9 -10 -9 -15 -1 -15 6 0 11 -7 11 -15 0 -8 9 -30 19 -49
14 -25 17 -36 8 -40 -9 -3 -9 -5 1 -5 6 -1 12 -8 12 -16 0 -8 5 -15 12 -15 9
0 9 -3 1 -11 -9 -9 -8 -15 3 -26 8 -8 12 -19 9 -24 -4 -5 -1 -9 4 -9 6 0 11
-9 11 -20 0 -11 4 -20 8 -20 4 0 14 -20 21 -45 8 -29 17 -42 25 -38 6 4 6 0
-2 -9 -10 -13 -10 -17 4 -22 9 -4 14 -13 10 -21 -3 -8 -2 -15 2 -15 4 0 15
-14 24 -31 10 -17 12 -27 5 -23 -6 4 -4 -2 6 -13 9 -11 17 -27 17 -36 0 -9 5
-19 12 -23 7 -5 8 -3 3 6 -5 9 -4 11 4 6 8 -5 9 -12 2 -19 -11 -14 22 -61 34
-49 4 4 2 -4 -5 -17 -6 -13 -8 -21 -3 -18 6 4 16 -5 23 -18 7 -14 17 -25 21
-25 5 0 6 -7 3 -15 -4 -10 0 -15 12 -16 12 0 14 -3 6 -6 -9 -3 -7 -10 9 -24
12 -10 19 -19 14 -19 -4 0 -2 -6 4 -13 6 -8 7 -18 3 -22 -4 -5 -2 -5 5 -1 10
5 26 -21 28 -47 0 -5 8 -14 17 -21 10 -7 15 -16 11 -19 -3 -4 -1 -7 5 -7 7 0
12 -9 12 -21 0 -11 4 -18 9 -14 5 3 12 -4 16 -15 4 -11 10 -18 15 -15 5 3 7
-3 5 -15 -2 -11 1 -23 7 -26 7 -5 8 -2 4 7 -4 8 -1 5 8 -5 8 -10 13 -23 10
-27 -3 -5 2 -9 10 -9 9 0 16 -6 16 -14 0 -7 7 -19 15 -26 8 -7 12 -17 8 -24
-3 -6 -3 -8 1 -4 10 8 36 -14 29 -24 -2 -5 4 -8 14 -9 11 0 13 -3 5 -6 -9 -4
-8 -9 6 -21 10 -10 24 -26 29 -37 11 -19 8 -20 -119 -21 -99 -1 -132 -5 -139
-15 -7 -12 -9 -11 -9 1 0 9 -9 16 -20 16 -11 0 -19 -5 -17 -11 3 -5 -6 -10
-18 -10 -13 0 -21 3 -19 7 3 4 -9 5 -25 2 -20 -4 -37 -1 -48 7 -9 8 -14 9 -10
3 4 -7 0 -14 -7 -17 -8 -3 -17 -1 -20 6 -3 9 -8 8 -15 -3 -9 -13 -11 -12 -11
5 -1 19 -1 19 -11 1 -9 -15 -13 -16 -20 -5 -7 12 -9 11 -9 -1 0 -13 -1 -13
-11 0 -8 12 -12 12 -16 2 -4 -10 -10 -9 -26 5 -15 14 -19 14 -15 3 5 -13 -9
-15 -91 -15 -53 0 -99 -4 -103 -10 -5 -6 -8 -5 -8 3 0 9 -5 10 -18 3 -10 -5
-24 -6 -32 -1 -8 5 -22 4 -32 -1 -12 -7 -18 -6 -18 1 0 6 -5 8 -10 5 -6 -4 -8
-10 -6 -14 3 -4 -1 -8 -9 -8 -8 0 -12 4 -9 9 8 13 -10 10 -25 -4 -9 -8 -11 -8
-8 -2 4 7 0 15 -9 18 -8 3 -13 2 -10 -2 3 -5 -10 -9 -29 -9 -19 0 -35 5 -35
11 0 6 -5 4 -10 -4 -7 -11 -12 -12 -21 -3 -13 13 -42 6 -33 -8 7 -12 -29 2
-38 15 -5 7 -8 3 -8 -8 0 -15 -3 -16 -15 -6 -12 10 -15 10 -15 -1 0 -11 -2
-11 -10 1 -5 8 -10 10 -10 5 0 -7 -32 -10 -83 -9 -45 0 -90 -3 -99 -8 -10 -5
-19 -4 -23 2 -3 5 -11 10 -16 10 -6 0 -8 -4 -5 -8 2 -4 -4 -8 -14 -8 -10 0
-17 3 -15 6 2 3 -5 6 -15 6 -10 0 -17 -3 -14 -7 2 -4 -7 -6 -21 -6 -15 0 -22
4 -18 11 4 7 2 7 -7 -1 -7 -6 -19 -9 -28 -6 -11 5 -13 3 -7 -8 5 -8 -2 -5 -15
6 -13 11 -20 14 -16 7 6 -10 2 -13 -15 -10 -13 2 -27 8 -31 13 -5 6 -8 5 -8
-3 0 -10 -10 -12 -36 -7 -20 3 -41 8 -48 12 -6 4 -5 -1 3 -10 12 -16 12 -17
-5 -11 -10 4 -25 12 -32 17 -9 7 -11 6 -7 -4 4 -11 -2 -14 -20 -14 -14 1 -28
4 -31 8 -4 3 -14 3 -23 -1 -9 -4 -36 -7 -61 -6 -25 1 -51 -4 -59 -10 -11 -8
-13 -8 -8 0 4 7 -2 12 -18 12 -14 0 -25 -5 -25 -10 0 -6 -7 -5 -15 2 -12 10
-15 10 -15 0 0 -9 -3 -10 -13 -1 -8 6 -17 8 -21 4 -12 -13 -46 -13 -46 0 0 8
-4 7 -10 -3 -8 -12 -11 -13 -19 -1 -7 11 -9 11 -14 0 -4 -12 -7 -11 -16 1 -8
12 -11 12 -11 1 0 -11 -3 -11 -17 0 -11 10 -14 10 -9 2 4 -8 2 -13 -8 -13 -8
0 -18 5 -21 10 -5 8 -12 7 -22 -1 -11 -10 -16 -10 -23 0 -6 11 -8 11 -12 0 -4
-12 -8 -11 -23 1 -15 12 -17 12 -10 1 6 -11 4 -13 -8 -8 -10 3 -17 3 -17 -1 0
-4 -37 -7 -82 -7 -46 0 -85 -4 -88 -10 -2 -5 -14 -19 -26 -30 -11 -11 -19 -26
-16 -34 3 -9 0 -11 -9 -6 -11 6 -12 5 -2 -6 7 -7 13 -17 13 -22 0 -4 -6 -5
-13 -1 -9 6 -9 4 1 -8 10 -12 10 -18 1 -23 -8 -6 -7 -10 2 -17 11 -7 11 -11 1
-15 -6 -2 -9 -9 -6 -15 10 -16 10 -227 0 -221 -5 4 -6 1 -2 -6 13 -20 14 -91
2 -84 -6 3 -5 0 1 -8 16 -16 17 -33 1 -23 -7 5 -8 3 -3 -7 5 -7 8 -26 7 -41
-1 -15 2 -28 8 -28 5 0 7 -7 4 -15 -4 -8 -1 -15 6 -15 6 0 9 -4 5 -9 -3 -6 4
-8 16 -6 15 3 18 1 11 -8 -14 -18 31 -60 48 -44 9 9 11 9 7 1 -4 -7 0 -14 8
-18 8 -3 15 -1 15 4 0 5 7 7 15 4 8 -4 15 -1 15 6 0 10 3 10 15 0 8 -7 15 -8
15 -3 0 5 7 10 15 10 8 0 15 -5 15 -10 0 -5 6 -4 13 2 8 6 17 8 20 4 4 -3 7
-2 7 4 0 11 41 9 61 -3 8 -4 9 -3 5 4 -10 16 7 15 23 0 10 -9 12 -9 7 -1 -5 9
5 11 34 10 23 -2 43 0 45 3 2 4 27 6 55 6 27 -1 50 3 50 8 0 4 6 3 14 -3 11
-9 18 -8 30 4 9 9 16 13 16 8 0 -5 11 -9 25 -9 14 0 25 5 25 11 0 5 4 4 9 -3
6 -10 10 -10 21 3 12 14 15 14 33 -2 11 -10 17 -12 13 -5 -6 9 -1 11 19 8 21
-4 26 -2 21 11 -5 12 -3 13 6 6 7 -6 21 -9 30 -8 10 2 21 -1 24 -7 3 -5 14 -2
26 8 11 11 22 14 26 9 10 -13 35 -18 27 -5 -3 5 -1 10 4 10 6 0 11 -5 11 -12
0 -6 6 -4 13 7 11 14 16 15 22 5 6 -9 4 -11 -5 -5 -9 5 -11 4 -6 -4 6 -9 11
-9 22 0 8 6 23 9 34 6 11 -3 20 -2 20 1 0 4 13 7 30 8 18 1 27 -3 24 -10 -3
-6 2 -2 10 8 10 13 16 15 16 7 0 -11 3 -11 15 -1 12 10 15 10 15 -1 0 -12 2
-12 9 0 7 11 9 11 14 0 5 -12 6 -12 6 0 1 11 4 11 18 0 14 -12 16 -12 8 0 -6
11 -4 13 8 8 10 -4 17 -2 17 5 0 7 4 7 14 -1 11 -9 16 -9 21 0 6 8 10 8 16 -2
6 -11 9 -10 15 4 3 9 10 14 15 11 5 -3 6 -11 2 -17 -4 -7 0 -6 10 2 9 7 17 10
17 6 0 -4 7 -2 15 5 12 10 15 10 15 0 0 -10 3 -10 15 0 11 9 15 9 15 1 0 -9 5
-9 20 -1 11 6 20 7 20 3 0 -4 5 -1 10 7 5 8 10 10 10 4 0 -6 14 -9 33 -6 17 2
42 3 55 3 13 -1 21 3 18 8 -7 11 13 9 33 -3 7 -5 16 -5 20 0 8 11 42 11 60 0
10 -7 12 -5 6 4 -6 10 -1 12 19 8 14 -3 26 -1 26 4 0 5 10 4 21 -3 12 -6 19
-7 15 -1 -3 5 5 9 19 9 14 1 23 -3 20 -7 -2 -3 2 -7 10 -7 8 0 12 4 9 9 -6 9
4 11 69 10 34 -1 46 2 40 11 -4 7 0 7 10 -2 14 -11 17 -11 17 0 0 11 2 11 10
-1 5 -8 10 -10 10 -5 0 6 18 10 40 8 23 -1 40 3 40 9 0 7 4 7 13 0 8 -7 18 -7
27 -2 9 5 19 5 26 -1 8 -7 17 -4 28 6 9 9 16 12 16 6 0 -6 11 -6 31 -1 26 8
29 7 18 -6 -10 -12 -9 -13 5 -8 9 3 16 9 16 13 0 4 17 7 37 6 21 -1 46 2 57 8
14 7 17 6 10 -5 -6 -10 -5 -11 7 -1 12 10 18 10 29 0 9 -8 11 -9 6 0 -3 6 -2
14 4 18 5 3 10 2 10 -4 0 -6 7 -8 15 -5 9 4 15 0 15 -7 1 -11 3 -10 10 1 5 10
22 15 49 14 24 0 41 4 41 10 0 7 3 7 8 1 13 -19 35 -17 28 2 -5 16 -4 15 9 -1
8 -11 15 -15 15 -10 0 6 7 11 15 11 8 0 15 -5 15 -11 0 -8 3 -7 8 0 9 14 92
23 92 10 0 -5 10 -1 22 10 12 10 18 13 14 7 -8 -15 3 -17 24 -3 9 6 17 5 22
-3 6 -9 8 -8 8 3 0 12 2 13 9 1 6 -8 14 -10 22 -5 8 5 30 9 49 10 71 4 95 8
107 16 6 5 14 5 18 -2 3 -5 11 -10 16 -10 6 0 8 4 5 8 -6 10 25 9 42 -2 6 -4
12 -3 12 2 0 5 11 10 25 10 14 0 25 -6 25 -12 0 -6 5 -4 10 4 8 13 10 12 10
-2 0 -10 6 -17 12 -15 7 1 12 -3 11 -10 -2 -6 6 -15 17 -18 11 -4 20 -11 20
-16 0 -5 6 -8 13 -6 6 1 11 -4 9 -11 -1 -8 2 -11 8 -7 5 3 10 1 10 -6 0 -7 3
-9 7 -6 3 4 19 -7 35 -23 15 -16 28 -26 28 -22 0 4 11 -6 24 -21 14 -16 28
-28 33 -29 4 0 7 -5 5 -11 -2 -6 4 -5 12 3 13 10 16 10 16 -3 0 -9 12 -22 28
-30 15 -7 26 -19 24 -26 -1 -7 2 -10 7 -7 13 8 42 -4 35 -15 -3 -5 2 -9 10 -9
9 0 16 -4 16 -10 0 -5 3 -9 8 -9 19 3 33 -2 27 -11 -3 -5 3 -10 15 -10 12 0
18 -4 15 -10 -3 -5 1 -10 10 -10 9 0 14 -4 10 -9 -3 -6 4 -8 15 -6 11 2 18 0
15 -6 -4 -5 1 -9 9 -9 9 0 16 -5 16 -11 0 -5 4 -8 9 -5 5 3 12 -1 15 -10 3 -8
10 -12 16 -9 5 3 10 1 10 -4 0 -6 7 -11 16 -11 9 0 12 -5 8 -12 -5 -8 0 -7 11
2 11 9 16 10 11 3 -4 -8 -1 -13 9 -13 9 0 13 -4 10 -10 -5 -9 16 -15 38 -11 5
1 6 -3 2 -9 -3 -5 1 -10 9 -10 9 0 16 -5 16 -11 0 -5 4 -8 9 -4 5 3 16 -2 24
-10 9 -8 21 -15 27 -15 6 0 8 -5 4 -12 -6 -10 -4 -10 8 0 14 11 17 10 23 -9 5
-15 10 -18 15 -9 5 8 9 8 13 -4 4 -10 13 -13 24 -9 10 3 15 3 11 -2 -9 -9 77
-55 104 -55 11 0 17 -4 14 -8 -2 -4 4 -14 16 -21 13 -8 18 -9 13 -1 -9 14 36
-10 47 -25 4 -5 8 -6 8 -1 0 5 7 3 15 -4 8 -7 15 -9 15 -4 0 5 5 1 11 -9 6 -9
15 -14 21 -11 6 4 8 2 4 -4 -3 -6 -15 -9 -26 -7 -11 2 -20 0 -20 -5 0 -4 -10
-6 -22 -2 -12 3 -19 1 -15 -5 3 -5 -8 -8 -29 -7 -22 2 -32 -1 -28 -7 4 -7 -3
-6 -16 1 -20 11 -22 10 -16 -5 5 -15 4 -16 -8 -6 -9 7 -17 8 -20 2 -3 -5 -14
-8 -24 -7 -9 2 -20 -2 -24 -8 -5 -7 -8 -6 -8 4 0 12 -2 12 -9 1 -5 -7 -29 -14
-56 -16 -27 -1 -51 -8 -56 -16 -7 -12 -9 -12 -9 0 0 11 -3 11 -17 0 -15 -12
-16 -12 -8 1 7 12 6 13 -7 3 -8 -7 -18 -10 -21 -6 -4 3 -7 0 -7 -8 0 -11 -2
-11 -10 1 -7 12 -10 12 -10 1 0 -7 -6 -11 -15 -8 -8 4 -17 2 -20 -3 -4 -6 -11
-10 -16 -10 -6 0 -7 5 -3 11 3 6 -4 5 -17 -3 -13 -8 -36 -13 -51 -12 -15 0
-25 -3 -22 -7 8 -14 -10 -11 -25 4 -10 10 -11 9 -6 -4 5 -13 1 -15 -21 -11
-21 4 -25 2 -19 -9 6 -11 5 -11 -5 -2 -13 12 -43 6 -35 -7 3 -5 -8 -5 -25 0
-19 5 -30 5 -30 -1 0 -6 -4 -7 -10 -4 -5 3 -10 1 -10 -5 0 -7 -8 -9 -20 -5
-13 4 -20 2 -20 -7 0 -10 -3 -9 -10 2 -6 10 -10 11 -10 3 0 -7 -10 -13 -22
-13 -13 0 -33 -1 -45 -1 -12 0 -24 -7 -27 -15 -4 -11 -10 -12 -25 -5 -14 8
-21 7 -24 -2 -4 -9 -6 -9 -6 0 -1 7 -8 10 -16 7 -8 -4 -12 -10 -9 -15 3 -5 1
-9 -5 -9 -5 0 -13 5 -16 11 -5 7 -14 4 -27 -7 -16 -16 -21 -16 -28 -4 -7 11
-10 12 -10 2 0 -7 -5 -10 -11 -6 -6 3 -15 0 -20 -7 -7 -11 -9 -11 -9 -1 0 10
-4 9 -16 -3 -12 -12 -19 -13 -30 -4 -11 9 -14 9 -14 -1 0 -7 -7 -10 -15 -6 -8
3 -15 0 -15 -6 0 -6 -6 -5 -17 3 -14 12 -16 12 -8 0 6 -11 3 -13 -14 -8 -15 3
-24 0 -28 -10 -5 -12 -7 -12 -15 -1 -8 10 -11 11 -15 0 -3 -9 -9 -10 -18 -2
-9 7 -16 6 -25 -5 -10 -12 -16 -13 -28 -3 -13 10 -14 10 -8 0 5 -8 -1 -12 -23
-12 -16 0 -32 -6 -34 -12 -4 -10 -6 -9 -6 1 -1 11 -4 11 -16 1 -12 -10 -18
-10 -32 1 -11 10 -14 10 -9 2 5 -9 1 -13 -11 -13 -11 0 -25 -6 -32 -12 -11
-11 -12 -10 -6 2 8 13 7 13 -8 1 -14 -11 -17 -11 -17 0 -1 10 -3 10 -10 -2 -5
-9 -19 -15 -32 -14 -13 1 -26 -3 -30 -9 -6 -8 -11 -6 -18 4 -8 12 -10 12 -10
1 0 -11 -3 -11 -17 0 -11 10 -14 10 -9 2 7 -13 -4 -17 -32 -14 -6 1 -12 -3
-12 -9 0 -5 -5 -10 -11 -10 -5 0 -7 6 -3 13 6 8 3 8 -9 -1 -9 -8 -20 -11 -25
-8 -6 3 -15 -1 -22 -9 -9 -11 -17 -12 -30 -5 -13 7 -21 7 -26 -1 -3 -6 -17 -9
-30 -6 -13 2 -24 0 -24 -5 0 -5 -4 -6 -10 -3 -5 3 -10 0 -10 -7 0 -9 -3 -9
-10 2 -6 9 -10 10 -10 3 0 -6 -9 -10 -20 -8 -11 2 -20 -1 -20 -6 0 -6 -4 -7
-10 -4 -5 3 -19 1 -30 -5 -14 -8 -20 -8 -20 0 0 6 -5 8 -10 5 -6 -4 -7 -12 -3
-18 4 -7 0 -6 -10 2 -9 7 -17 9 -17 4 0 -5 -15 -9 -32 -8 -18 0 -38 -3 -45 -8
-7 -5 -17 -6 -23 -2 -5 3 -10 2 -10 -3 0 -6 -7 -13 -16 -16 -12 -5 -15 -2 -10
11 6 15 5 16 -11 1 -10 -8 -26 -14 -35 -13 -10 2 -18 -1 -18 -6 0 -6 -5 -7
-10 -4 -6 4 -18 1 -27 -7 -9 -7 -14 -8 -10 -2 3 6 0 11 -8 11 -8 0 -12 -4 -10
-8 3 -3 -6 -9 -20 -11 -14 -3 -25 -1 -25 4 0 5 -7 2 -16 -6 -19 -19 -28 -21
-18 -3 6 9 4 9 -8 -1 -9 -7 -20 -12 -24 -11 -29 5 -54 -2 -48 -13 5 -9 2 -9
-9 1 -12 9 -17 10 -17 2 0 -9 -5 -9 -20 -1 -17 9 -19 8 -13 -7 5 -15 3 -16 -7
-6 -11 10 -16 9 -27 -5 -8 -9 -11 -11 -7 -3 5 10 3 12 -6 6 -8 -5 -29 -10 -47
-11 -19 -1 -41 -8 -50 -15 -14 -12 -16 -12 -8 1 8 13 7 13 -8 1 -14 -11 -17
-11 -17 0 0 12 -2 12 -9 0 -5 -8 -16 -11 -25 -8 -9 4 -20 -1 -25 -11 -7 -12
-10 -13 -11 -3 0 11 -3 11 -17 0 -15 -12 -16 -12 -8 1 8 13 7 13 -8 1 -9 -7
-17 -10 -17 -5 0 5 -5 2 -10 -6 -8 -12 -10 -12 -10 -1 0 11 -5 9 -22 -5 -13
-12 -18 -13 -13 -4 7 12 6 13 -6 3 -12 -10 -18 -10 -29 0 -10 9 -11 9 -6 0 6
-11 -10 -16 -40 -12 -4 0 -11 -5 -15 -13 -6 -9 -9 -9 -9 -1 0 9 -8 9 -28 3
-15 -6 -41 -11 -57 -13 -17 -2 -36 -7 -43 -11 -7 -4 -16 -4 -22 -1 -5 3 -10 1
-10 -6 0 -8 -5 -7 -17 2 -10 8 -14 9 -10 2 4 -6 3 -14 -2 -17 -5 -4 -13 -2
-16 4 -5 8 -11 7 -21 -1 -8 -6 -25 -9 -38 -7 -19 4 -23 1 -18 -11 5 -13 3 -14
-9 -5 -10 8 -21 9 -39 2 -14 -6 -38 -11 -55 -12 -16 -1 -36 -5 -43 -9 -7 -5
-26 -9 -42 -9 -16 -1 -27 -4 -25 -8 2 -4 -2 -7 -10 -7 -8 0 -15 5 -15 11 0 6
-4 5 -9 -3 -5 -8 -18 -12 -30 -8 -12 3 -18 1 -15 -4 3 -6 -6 -8 -20 -5 -17 3
-24 1 -20 -6 5 -7 -4 -9 -25 -6 -17 2 -31 1 -31 -4 0 -5 -4 -7 -9 -3 -5 3 -12
1 -16 -5 -4 -7 -13 -6 -27 1 -15 8 -19 8 -14 0 5 -7 -1 -11 -14 -11 -12 0 -19
-4 -16 -8 6 -10 -30 -9 -40 1 -4 4 -13 2 -20 -4 -8 -6 -21 -9 -29 -5 -8 3 -15
0 -15 -6 0 -6 -3 -8 -7 -5 -3 4 -13 1 -21 -6 -9 -6 -13 -7 -9 -1 3 6 0 11 -8
11 -8 0 -12 -4 -9 -9 5 -8 2 -9 -53 -12 -18 -1 -35 -5 -38 -8 -4 -4 -13 -4
-21 -1 -8 3 -14 0 -14 -6 0 -6 -6 -8 -14 -5 -8 3 -19 -3 -25 -15 -12 -21 -11
-121 1 -121 3 0 5 -14 4 -31 -1 -17 3 -38 10 -47 8 -11 9 -23 3 -34 -6 -11 -5
-20 3 -25 7 -4 14 -21 15 -38 7 -86 12 -114 22 -133 9 -17 9 -22 -1 -22 -8 0
-9 -3 -3 -8 12 -8 13 -14 19 -78 3 -25 12 -54 21 -64 10 -10 14 -24 10 -30 -3
-6 -3 -10 2 -9 13 4 63 -23 58 -31 -2 -4 2 -7 10 -7 8 0 11 5 8 10 -4 6 -1 7
7 2 18 -11 60 -13 54 -3 -5 8 4 10 43 11 12 0 20 3 18 7 -4 7 13 11 113 27 17
3 32 9 32 13 0 4 14 7 31 6 16 -1 33 2 36 7 4 6 1 7 -7 2 -8 -5 -11 -4 -7 2 3
5 20 8 36 7 17 -1 31 2 31 6 0 5 9 7 19 5 11 -2 22 3 25 12 5 12 9 13 21 3 10
-9 15 -9 15 -1 0 6 5 11 11 11 5 0 7 -5 3 -11 -3 -6 5 -3 19 6 15 9 31 14 37
10 5 -3 10 -1 10 6 0 7 10 9 25 7 13 -3 22 -1 19 3 -4 8 44 14 69 10 5 -1 5 4
1 10 -5 8 1 10 20 7 14 -3 26 -2 26 2 0 6 16 10 52 11 10 0 18 5 18 11 0 6 3
8 7 5 3 -4 13 -1 21 6 13 10 14 9 7 -3 -8 -13 -7 -13 8 -1 10 8 20 11 24 8 3
-4 12 -2 20 4 7 6 22 9 34 6 12 -3 22 0 26 9 3 8 9 11 14 8 5 -3 9 0 9 7 0 10
3 10 11 2 7 -7 18 -8 28 -3 19 10 73 24 84 22 4 -1 7 2 7 8 0 5 7 7 15 4 8 -4
22 -1 29 5 11 9 15 9 19 -1 4 -10 6 -10 6 0 1 6 11 12 24 12 13 0 28 5 35 12
7 7 12 8 12 4 0 -5 8 -2 17 5 11 10 14 10 9 2 -4 -7 -2 -13 3 -13 6 0 11 5 11
11 0 5 4 7 10 4 5 -3 10 -1 10 6 0 7 3 9 6 6 4 -3 15 -2 25 4 14 7 19 6 19 -3
0 -9 3 -9 10 2 5 8 12 11 16 7 4 -4 12 -3 18 2 6 5 27 12 46 15 19 3 36 9 38
15 2 5 10 7 18 4 8 -3 22 1 31 8 14 12 16 12 8 -1 -8 -13 -7 -13 8 -1 10 8 20
11 24 7 3 -3 16 0 27 7 12 7 34 14 50 15 16 1 36 8 44 15 9 6 13 7 9 1 -3 -6
0 -11 8 -11 8 0 12 4 9 9 -5 7 20 12 29 6 2 -2 12 4 22 12 17 13 18 13 10 0
-8 -13 -6 -13 8 -2 9 8 21 11 27 7 5 -3 10 -1 10 5 0 6 4 9 9 6 5 -4 12 0 14
6 4 9 6 9 6 1 1 -13 61 5 73 22 5 6 8 4 8 -5 0 -10 3 -11 8 -4 4 7 25 15 47
18 22 4 41 11 43 15 2 5 12 6 24 3 16 -4 19 -2 13 9 -8 12 -6 12 8 0 12 -9 17
-10 17 -2 0 7 5 9 10 6 6 -3 10 -1 10 4 0 6 5 11 11 11 5 0 8 -4 4 -9 -3 -6 3
-9 14 -8 11 1 17 6 14 15 -4 10 1 11 22 6 18 -4 26 -3 22 3 -4 6 4 9 18 7 14
-1 25 2 25 7 0 4 7 6 15 3 8 -4 15 -1 15 6 0 9 4 9 17 -1 14 -12 16 -12 8 0
-6 11 -2 13 19 9 22 -4 29 -1 36 16 5 11 9 16 9 9 1 -12 41 -14 41 -2 0 12 49
16 59 6 7 -7 12 -5 16 6 4 9 13 13 21 10 8 -3 14 0 14 6 0 6 7 8 15 5 8 -4 15
-1 15 6 0 10 3 10 14 1 10 -9 16 -9 21 -1 4 6 13 9 21 6 8 -3 17 1 21 9 4 11
9 13 18 5 9 -8 17 -6 29 5 9 9 16 13 16 9 0 -3 6 -2 13 5 10 8 17 7 27 -2 10
-10 12 -9 8 4 -5 12 0 14 24 11 17 -3 28 -1 25 4 -3 5 7 10 21 11 43 4 61 9
68 16 12 12 26 8 19 -5 -4 -7 0 -5 8 4 11 14 16 15 27 5 10 -10 11 -9 5 2 -6
11 -4 13 8 8 9 -3 19 -2 22 3 4 6 17 10 31 10 13 0 24 4 24 9 0 13 43 10 52
-4 5 -6 8 -2 8 8 0 10 5 15 10 12 6 -3 10 -2 10 4 0 5 9 8 20 6 27 -5 52 4 44
17 -4 6 3 5 15 -1 19 -10 24 -8 23 9 0 3 15 6 34 7 53 3 64 6 64 14 0 4 9 6
20 4 11 -2 22 0 25 6 4 5 22 9 41 9 19 0 33 4 29 9 -3 6 5 8 19 5 15 -2 26 1
30 11 4 12 10 14 25 5 14 -7 22 -7 27 1 3 6 15 8 26 6 14 -4 17 -2 9 7 -7 8
-5 12 9 12 10 0 16 -5 12 -11 -3 -5 1 -4 10 3 13 10 17 10 21 0 4 -8 6 -7 6 4
1 11 6 15 15 12 8 -3 17 0 21 6 6 9 10 9 16 -1 7 -11 9 -11 9 1 0 11 11 15 39
15 22 0 37 3 35 7 -5 7 27 13 49 9 4 0 7 4 7 10 0 8 5 8 15 -1 12 -10 15 -10
15 2 0 11 7 14 27 10 18 -3 30 1 40 13 7 11 13 13 13 7 0 -7 5 -12 11 -12 5 0
7 4 4 10 -3 6 1 7 9 4 9 -3 16 -2 16 3 0 5 16 10 37 11 20 2 40 5 45 8 12 8
50 16 71 16 9 -1 15 4 11 10 -4 6 3 5 16 -2 18 -10 21 -9 15 1 -6 9 -3 11 8 6
12 -4 17 -1 18 11 0 10 3 12 6 5 3 -9 10 -10 22 -3 10 5 21 6 25 3 3 -3 6 -2
6 3 0 5 11 10 25 11 46 4 55 6 55 15 0 5 5 6 10 3 6 -4 16 -2 23 3 7 5 22 8
34 7 12 -1 25 5 28 13 4 11 8 12 20 2 10 -8 15 -9 15 -2 0 6 9 9 20 7 11 -2
20 1 20 6 0 6 5 7 10 4 6 -3 10 -1 10 5 0 6 4 9 9 6 5 -3 28 0 52 7 25 8 50
12 58 9 9 -3 11 0 6 8 -6 10 -3 12 10 7 9 -4 25 -2 33 5 12 10 14 10 8 1 -5
-9 -2 -11 8 -7 9 3 16 10 16 14 0 4 11 6 25 5 14 -2 25 1 25 7 0 5 7 2 16 -6
8 -9 20 -14 25 -11 5 4 9 1 9 -6 0 -7 10 -9 25 -7 14 3 23 1 22 -6 -1 -6 6
-10 16 -8 9 2 17 -2 17 -7 0 -6 7 -7 17 -4 10 4 14 2 9 -5 -4 -6 1 -11 11 -11
42 -1 54 -5 50 -15 -3 -6 5 -12 17 -12 37 -3 69 -13 78 -26 6 -10 8 -10 8 0 0
7 5 10 10 7 6 -4 8 -11 5 -16 -3 -5 1 -6 9 -3 9 4 16 1 16 -6 0 -10 3 -10 15
0 10 9 15 9 15 1 0 -6 7 -11 15 -11 8 0 15 -4 15 -8 0 -7 8 -9 64 -14 14 -1
22 -6 19 -12 -4 -5 1 -7 10 -3 12 4 17 1 17 -11 0 -11 3 -13 8 -5 5 8 17 6 45
-7 20 -10 35 -14 31 -9 -3 5 -1 9 5 9 5 0 11 -5 13 -10 2 -6 13 -12 26 -13 12
0 22 -6 22 -12 0 -5 5 -3 10 5 6 10 10 11 10 3 0 -7 9 -13 21 -13 11 0 17 -4
14 -10 -3 -6 1 -7 9 -4 8 3 29 -1 46 -9 17 -9 28 -12 25 -7 -3 4 4 6 15 3 11
-3 20 -10 20 -15 0 -6 8 -4 17 3 10 8 14 9 10 2 -4 -6 -3 -14 2 -17 5 -4 13
-1 17 5 5 8 8 8 13 0 4 -6 19 -12 34 -13 15 -1 27 -6 27 -11 0 -4 5 -5 10 -2
6 3 10 0 10 -7 0 -11 2 -11 9 0 7 11 11 10 24 -2 9 -10 18 -12 22 -6 4 6 15 4
31 -6 13 -9 24 -12 24 -8 0 5 5 2 10 -6 7 -11 10 -12 10 -2 0 10 3 10 15 -1 8
-9 24 -13 35 -10 11 3 20 1 20 -4 0 -5 17 -10 37 -11 20 -1 40 -7 45 -14 6
-10 8 -9 8 2 0 10 3 11 8 4 4 -7 21 -13 37 -15 17 -2 36 -7 42 -12 7 -5 19 -7
28 -4 8 4 19 -1 24 -11 10 -15 10 -15 11 2 0 20 0 20 16 0 8 -10 12 -12 8 -4
-7 13 -6 13 11 0 10 -8 20 -14 22 -12 1 1 12 2 24 2 12 0 18 -4 13 -11 -5 -8
-2 -9 12 -1 14 8 23 7 36 -5 17 -15 18 -15 18 2 0 15 3 14 21 -6 11 -13 18
-18 14 -11 -3 6 -1 12 4 12 6 0 11 -6 11 -12 0 -9 4 -8 10 2 7 11 10 12 10 2
0 -8 6 -12 13 -9 6 2 20 -3 30 -11 16 -15 17 -14 12 4 -6 18 -6 18 8 2 10 -13
16 -15 25 -6 8 8 12 8 12 1 0 -5 15 -9 32 -8 18 1 42 -6 52 -14 16 -13 18 -14
11 -1 -7 12 -6 13 7 3 8 -7 17 -10 20 -7 3 3 23 -2 43 -10 33 -14 36 -14 25
-1 -11 13 -8 13 25 0 30 -13 40 -14 53 -3 12 10 14 10 8 1 -7 -12 5 -18 28
-14 4 1 15 -4 24 -11 12 -10 14 -10 8 0 -4 6 -2 12 3 12 6 0 11 -5 11 -11 0
-8 6 -7 17 2 14 12 16 12 8 0 -6 -11 -4 -13 8 -8 9 3 18 3 21 -1 2 -4 23 -7
45 -6 23 0 41 -3 41 -6 0 -4 19 -8 43 -9 52 -1 74 -5 83 -14 4 -4 13 -2 21 4
8 7 13 8 13 1 0 -5 18 -9 40 -8 32 2 39 -1 35 -12 -4 -12 -3 -13 10 -2 12 10
18 10 32 -1 13 -11 15 -11 9 -1 -6 9 -3 12 10 10 11 -2 22 -7 26 -12 4 -6 13
-4 22 3 10 8 16 9 16 3 0 -6 13 -10 29 -10 15 1 34 -3 41 -7 9 -6 11 -4 5 4
-6 10 -3 11 14 2 11 -7 21 -9 21 -5 0 3 6 2 12 -2 16 -11 39 -11 56 -1 6 5 12
4 12 -1 0 -11 61 -10 79 2 10 6 12 6 7 -2 -5 -8 1 -13 16 -13 13 -1 39 -3 59
-4 19 -1 41 -5 49 -10 9 -6 11 -4 5 4 -6 10 -3 11 12 3 11 -6 25 -7 33 -2 9 5
19 5 26 -1 8 -7 14 -6 19 1 3 5 12 10 18 10 8 0 7 -3 -2 -9 -9 -6 0 -10 28
-13 22 -2 43 1 45 7 3 6 5 5 5 -1 1 -8 12 -10 34 -5 36 9 60 4 52 -9 -6 -10
18 -7 49 6 14 5 17 4 12 -5 -9 -14 15 -11 27 4 4 6 11 4 17 -5 8 -12 10 -12
10 -1 0 10 3 11 13 3 8 -7 18 -7 27 -2 9 5 20 5 28 -2 10 -9 16 -8 23 3 7 11
9 11 9 0 0 -11 3 -11 15 -1 8 7 15 8 15 3 0 -5 9 -9 20 -10 11 -1 20 3 20 8 0
6 7 3 16 -5 8 -9 20 -13 26 -9 17 10 391 10 413 -1 18 -9 19 -8 5 9 -14 17
-14 17 6 7 12 -6 26 -7 34 -2 8 5 19 6 25 2 18 -11 35 -11 35 1 0 7 5 5 10 -3
5 -8 10 -10 10 -3 0 6 8 10 18 8 9 -2 17 -4 17 -5 0 -1 8 -3 18 -5 9 -2 15 1
11 6 -7 12 3 11 29 -3 21 -10 21 -10 7 7 -14 17 -14 17 6 7 14 -8 24 -8 31 -1
8 8 13 7 18 -2 6 -8 4 -10 -5 -4 -9 6 -11 4 -6 -4 6 -9 12 -8 26 4 14 12 20
13 26 4 5 -8 3 -10 -6 -4 -8 5 -11 4 -7 -3 4 -5 15 -9 25 -7 9 2 21 4 25 4 5
1 6 5 3 9 -6 9 36 8 51 -1 7 -4 14 -3 17 2 3 5 19 7 36 6 17 -1 30 2 30 9 0 6
5 4 10 -4 9 -13 10 -13 10 0 0 13 1 13 10 0 6 -10 10 -11 10 -2 0 6 5 12 11
12 5 0 7 -5 3 -12 -4 -7 -3 -8 5 -4 21 14 63 18 56 5 -5 -8 -1 -8 15 1 12 6
31 10 41 7 10 -3 19 -1 19 3 0 4 9 6 20 3 11 -3 26 0 34 6 10 8 16 9 21 1 3
-5 11 -10 16 -10 6 0 7 5 3 11 -4 7 1 7 16 -1 15 -8 20 -8 16 -1 -4 6 -2 11 3
11 6 0 11 -6 11 -12 0 -9 3 -10 8 -2 4 6 19 10 35 10 15 -1 27 2 27 7 0 5 6 4
14 -2 11 -9 15 -9 18 1 4 10 9 10 23 -2 10 -8 16 -10 12 -3 -4 6 -3 14 3 18 5
3 10 2 10 -2 0 -5 9 -9 19 -9 11 0 17 4 15 8 -8 13 21 9 35 -4 11 -11 12 -10
6 1 -5 9 -3 12 6 9 8 -3 22 -1 32 4 35 18 57 18 57 0 0 -12 3 -13 8 -5 4 7 18
14 30 16 12 2 24 6 28 9 3 4 17 3 31 -3 16 -6 22 -6 18 1 -3 6 1 10 10 10 9 0
13 -5 9 -11 -3 -6 5 -3 20 6 18 12 26 14 26 5 0 -9 4 -9 13 -2 7 6 25 9 40 8
15 -2 27 0 27 4 0 4 14 6 30 5 17 -1 30 1 30 5 0 4 11 8 25 8 15 0 22 -5 19
-12 -3 -6 1 -3 9 6 8 10 17 15 21 11 4 -4 11 -1 16 7 7 10 10 11 10 3 0 -7 5
-13 11 -13 5 0 7 6 3 13 -6 9 -5 9 7 0 9 -7 19 -9 25 -4 5 5 25 11 44 12 19 2
41 7 48 12 8 6 12 5 12 -4 0 -9 3 -10 8 -4 4 6 21 12 37 14 17 1 36 8 44 14
12 10 13 9 7 -1 -7 -11 -4 -12 12 -3 11 6 30 11 42 11 12 0 19 3 17 7 -3 5 6
8 19 8 13 0 24 -3 24 -7 0 -4 7 -5 15 -2 8 4 13 9 10 14 -2 4 8 6 22 4 15 -1
34 1 43 6 11 6 21 5 27 -1 8 -8 13 -7 18 2 6 8 4 10 -5 4 -8 -5 -11 -4 -7 2 3
5 16 9 29 8 13 -1 26 3 30 9 5 7 8 6 8 -4 0 -12 2 -12 9 -2 4 7 19 14 32 14
13 1 30 6 38 12 12 9 13 8 6 -4 -8 -13 -6 -13 8 -1 9 7 24 11 32 7 8 -3 15 -1
15 4 0 5 7 7 15 4 8 -4 15 -2 15 4 0 6 8 9 18 8 9 -2 23 4 30 13 8 9 11 11 8
5 -3 -7 3 -14 13 -17 13 -3 18 0 15 8 -3 7 4 15 15 18 12 3 19 1 15 -4 -3 -5
0 -9 5 -9 6 0 11 5 11 11 0 5 4 8 9 5 5 -4 12 0 14 6 4 10 6 9 6 -1 1 -11 4
-11 18 0 14 12 16 12 9 -1 -4 -8 -1 -7 8 4 8 10 20 15 26 11 6 -4 17 -1 25 5
8 7 15 9 15 5 0 -4 12 0 26 10 15 9 23 12 20 6 -9 -15 5 -13 26 2 9 7 30 12
47 11 17 -1 29 2 26 6 -3 5 -1 11 5 15 5 3 10 0 10 -7 0 -9 3 -9 10 2 5 8 10
11 10 6 0 -5 6 -3 14 3 11 9 15 9 19 -1 4 -11 6 -10 6 0 1 7 6 10 11 7 6 -3
10 -1 10 5 0 6 4 9 9 6 5 -3 11 0 14 7 3 7 19 12 41 11 20 -1 36 2 36 7 0 5 3
8 8 8 18 -3 33 2 28 9 -3 5 1 9 9 9 8 0 15 -5 15 -11 0 -6 4 -5 9 2 4 8 11 13
15 13 20 -3 26 0 20 12 -5 8 -2 8 9 -2 12 -9 17 -10 17 -2 0 7 4 10 9 6 6 -3
14 3 20 12 6 10 11 13 11 6 0 -8 9 -7 31 4 17 8 41 16 55 17 13 0 24 7 24 14
0 6 5 12 11 12 5 0 8 -4 5 -9 -7 -10 9 -8 36 4 10 4 15 11 12 16 -3 5 2 6 10
3 9 -4 16 -1 16 6 0 10 3 10 14 1 11 -10 17 -8 25 6 8 14 10 15 11 3 0 -10 3
-11 8 -4 4 7 16 14 27 16 11 2 19 9 18 15 -2 7 7 10 21 7 14 -2 31 3 40 12 10
9 16 11 16 4 0 -7 7 -5 16 4 8 9 19 14 24 11 5 -3 10 0 12 5 2 6 13 12 26 13
12 0 22 5 22 10 0 4 5 5 10 2 6 -3 10 -1 10 6 0 8 4 8 15 -1 12 -10 15 -9 15
4 0 10 4 15 8 12 4 -2 14 -1 22 4 9 5 20 4 29 -3 10 -8 13 -8 8 -1 -9 16 46
26 55 11 5 -8 8 -6 8 6 0 10 5 15 10 12 6 -3 10 -1 10 5 0 6 4 9 9 6 14 -9 42
5 35 16 -4 6 3 5 15 -1 15 -8 21 -9 21 -1 0 6 5 8 10 5 6 -3 10 -1 10 5 0 7 7
9 16 6 8 -3 13 -2 10 3 -9 14 20 21 33 8 9 -9 10 -8 5 7 -5 13 -4 17 4 12 6
-3 13 -2 17 4 3 5 14 10 24 10 10 0 26 10 35 22 9 13 14 17 11 11 -3 -7 -4
-13 -1 -13 11 0 76 42 76 50 0 4 11 6 25 5 14 -2 23 1 20 6 -3 4 6 11 20 15
14 3 25 11 25 18 0 7 3 6 9 -2 6 -10 10 -10 20 2 7 8 19 12 27 9 7 -3 17 2 20
11 3 9 10 16 16 16 5 0 6 -6 3 -12 -4 -7 0 -5 8 5 8 9 24 17 36 17 12 0 19 4
16 10 -3 6 3 10 15 10 12 0 18 4 15 10 -3 6 1 7 9 4 9 -3 16 -1 16 5 0 6 9 11
21 11 11 0 17 5 14 10 -5 9 17 14 30 8 2 -2 11 6 20 17 9 11 13 14 10 7 -6
-11 -3 -11 16 0 13 7 26 15 29 18 3 3 16 11 29 18 19 11 22 11 15 0 -4 -7 5
-2 19 11 15 14 30 22 33 18 4 -3 13 0 20 8 8 8 21 12 30 8 9 -3 14 0 12 8 -2
8 4 13 15 13 10 -1 17 5 17 15 0 14 2 14 10 1 8 -13 10 -12 10 3 0 10 4 16 9
12 5 -3 13 0 16 6 4 5 13 8 20 5 7 -2 15 4 18 15 3 10 11 19 19 18 10 0 10 -2
1 -6 -7 -2 -13 -10 -13 -16 0 -6 10 -2 23 9 12 11 31 26 41 34 18 13 19 13 12
0 -4 -8 1 -5 10 7 9 13 25 23 36 23 10 0 17 4 14 8 -2 4 4 14 16 21 16 10 19
10 12 -1 -4 -7 7 2 24 20 17 19 36 31 42 27 5 -3 10 -2 10 4 0 13 29 3 53 -17
9 -8 20 -12 23 -9 4 3 13 -1 21 -9 8 -8 18 -12 23 -9 4 3 10 -2 13 -10 4 -8
15 -12 27 -10 11 2 18 0 15 -6 -4 -5 1 -9 10 -9 10 0 13 -5 9 -12 -4 -6 -3 -8
3 -5 5 3 20 0 34 -7 13 -7 30 -11 37 -8 7 2 11 -2 10 -9 -2 -8 7 -15 20 -17
12 -2 22 -8 22 -13 0 -6 4 -8 9 -4 5 3 17 -3 27 -12 10 -10 19 -17 21 -15 9 7
33 0 28 -8 -3 -5 3 -10 14 -10 12 0 21 -5 21 -11 0 -5 5 -7 10 -4 6 3 10 2 10
-4 0 -6 7 -8 15 -5 8 4 15 1 15 -6 0 -7 7 -10 16 -6 9 3 12 2 9 -4 -4 -6 7
-13 24 -16 18 -4 28 -11 24 -17 -4 -6 2 -8 15 -5 15 4 22 2 22 -7 0 -8 8 -12
20 -10 13 3 20 -2 20 -12 0 -10 6 -14 19 -10 12 3 22 -1 25 -9 3 -8 12 -14 21
-14 8 0 15 -5 15 -11 0 -8 6 -7 17 2 11 10 14 10 9 2 -4 -8 -1 -13 8 -13 9 0
16 -4 16 -10 0 -5 11 -10 25 -10 15 0 25 -6 25 -15 0 -9 6 -12 17 -8 12 5 14
3 8 -8 -7 -11 -5 -11 10 1 10 8 16 10 13 5 -4 -6 7 -18 23 -28 18 -10 28 -12
24 -4 -4 6 0 4 8 -6 9 -10 18 -17 21 -15 3 2 14 -4 24 -13 13 -11 24 -14 35
-7 13 7 15 5 10 -8 -5 -14 -2 -16 15 -12 12 4 25 1 29 -4 4 -7 1 -8 -7 -3 -9
5 -11 4 -6 -3 4 -7 19 -12 33 -12 17 0 23 -4 20 -14 -4 -10 0 -12 15 -8 16 4
19 2 13 -8 -5 -8 -4 -11 2 -7 12 8 73 -14 73 -26 0 -4 5 -5 10 -2 6 3 10 1 10
-6 0 -6 8 -9 19 -6 14 3 18 1 14 -10 -4 -11 -1 -14 8 -11 8 3 20 -1 27 -9 8
-7 18 -11 23 -8 5 4 9 1 9 -6 0 -7 3 -10 6 -6 4 3 13 -1 21 -9 8 -8 19 -12 24
-9 5 4 9 1 9 -6 0 -7 8 -9 21 -6 16 4 19 2 15 -10 -5 -12 -1 -14 14 -10 11 3
18 1 14 -4 -3 -5 0 -10 5 -10 6 -1 17 -2 24 -3 6 -1 11 -8 9 -16 -2 -11 0 -11
11 -1 12 9 16 8 21 -4 3 -8 9 -15 13 -14 21 4 33 -2 27 -13 -5 -7 -3 -8 5 -4
7 5 20 1 30 -8 11 -10 25 -14 36 -10 10 4 16 3 13 -2 -7 -12 11 -28 37 -32 11
-2 22 -8 23 -13 2 -5 8 -7 13 -3 5 3 9 -3 9 -13 0 -10 4 -14 8 -8 9 13 35 18
27 5 -3 -5 1 -10 9 -10 9 0 16 -5 16 -11 0 -5 4 -8 9 -4 5 3 17 -5 27 -17 9
-13 14 -16 11 -7 -3 9 1 16 8 16 8 0 14 -3 13 -6 -2 -22 4 -28 24 -23 13 3 19
1 15 -5 -4 -6 0 -13 7 -16 8 -3 17 -1 20 6 2 7 5 4 5 -6 1 -9 4 -16 9 -15 14
4 52 -13 52 -23 0 -6 5 -7 10 -4 6 3 10 2 10 -4 0 -6 7 -7 17 -4 11 4 14 3 9
-5 -5 -8 1 -12 19 -12 14 0 28 -7 31 -15 4 -8 10 -12 15 -9 5 3 9 1 9 -4 0 -5
7 -9 15 -10 8 -1 22 -3 30 -4 12 -1 12 -4 2 -17 -10 -12 -9 -13 1 -7 7 4 20 2
29 -6 14 -11 16 -11 8 1 -5 9 2 7 21 -5 33 -23 95 -50 107 -46 4 1 7 -6 8 -15
0 -12 2 -13 6 -5 4 9 10 7 23 -8 13 -15 19 -17 23 -8 3 7 6 4 6 -7 1 -17 3
-17 11 -5 8 13 10 12 10 -3 0 -10 3 -16 8 -14 11 7 54 -12 48 -21 -3 -5 1 -9
9 -9 8 0 12 5 9 11 -3 6 3 2 13 -9 10 -11 24 -20 31 -21 29 -2 33 -5 26 -16
-4 -7 -4 -10 1 -6 4 4 14 3 22 -3 7 -6 13 -8 13 -5 0 4 13 -2 30 -14 16 -12
34 -18 40 -15 5 3 10 -2 10 -12 0 -15 2 -16 10 -3 9 13 14 7 11 -13 0 -4 2 -6
6 -5 18 3 62 -15 57 -23 -3 -5 -2 -9 3 -8 30 5 53 -3 53 -18 0 -15 2 -16 10
-3 7 11 10 11 10 2 0 -7 5 -10 10 -7 6 3 10 2 10 -2 0 -5 9 -14 21 -21 13 -9
18 -9 14 -2 -5 8 0 7 13 -1 12 -7 19 -16 16 -20 -2 -5 5 -6 16 -4 11 2 24 -3
30 -13 8 -14 10 -14 10 -2 0 9 6 5 15 -10 9 -15 14 -19 15 -10 0 12 2 12 9 2
4 -7 17 -14 29 -15 11 0 18 -5 16 -9 -3 -4 2 -8 10 -8 9 0 16 -4 16 -9 0 -5
11 -8 25 -6 20 2 23 0 14 -12 -9 -11 -9 -12 4 -8 8 4 18 1 22 -4 3 -6 11 -9
16 -6 5 4 9 1 9 -6 0 -7 3 -9 7 -6 3 4 14 0 24 -9 9 -8 25 -17 34 -18 9 -1 21
-9 26 -17 7 -11 9 -11 9 -1 0 7 5 10 10 7 6 -4 8 -10 6 -14 -3 -4 5 -8 17 -8
12 -1 23 -7 25 -13 2 -5 12 -10 23 -10 10 0 19 -4 19 -9 0 -5 7 -12 16 -15 10
-4 13 -2 9 7 -4 6 0 4 8 -5 8 -10 17 -15 20 -11 4 3 7 1 7 -6 0 -7 5 -9 10 -6
6 3 10 1 10 -4 0 -6 9 -11 20 -11 11 0 20 -5 20 -11 0 -5 4 -8 9 -4 5 3 16 -2
25 -11 9 -8 20 -12 26 -9 6 3 13 -1 16 -9 3 -9 10 -13 15 -10 5 3 9 0 9 -6 0
-6 5 -8 10 -5 6 3 10 1 10 -5 0 -6 5 -8 10 -5 6 3 10 0 10 -7 0 -9 3 -9 10 2
8 13 10 12 10 -3 0 -10 5 -15 10 -12 6 3 10 1 10 -4 0 -6 5 -11 11 -11 5 0 7
6 4 13 -4 6 0 4 8 -5 8 -10 19 -18 26 -18 6 0 11 -4 11 -8 0 -4 10 -8 22 -9
11 -1 24 -6 27 -10 3 -4 20 -15 36 -23 17 -8 33 -19 37 -25 4 -5 8 -6 8 -1 0
5 7 3 15 -4 8 -7 15 -9 15 -4 0 5 4 3 9 -4 4 -7 17 -14 29 -15 11 0 18 -5 16
-9 -3 -4 2 -8 10 -8 9 0 16 -4 16 -9 0 -6 9 -8 19 -6 11 2 22 -3 25 -11 3 -8
14 -14 24 -14 10 0 27 -9 38 -21 10 -11 26 -18 35 -16 10 3 20 -2 23 -10 4 -8
13 -13 21 -9 9 3 15 0 15 -10 0 -8 4 -13 9 -10 4 3 17 -1 27 -9 10 -8 27 -15
37 -15 10 0 15 -4 12 -10 -4 -6 1 -7 11 -3 11 4 15 3 11 -4 -5 -7 2 -10 18 -9
13 2 22 -1 19 -5 -3 -5 2 -9 11 -9 8 0 18 -7 21 -15 5 -11 10 -13 19 -5 10 8
15 8 21 -1 5 -8 3 -9 -6 -4 -9 5 -11 4 -6 -3 4 -7 14 -12 21 -12 8 0 29 -9 47
-20 18 -11 41 -20 51 -20 10 0 15 -4 12 -10 -3 -5 3 -10 15 -10 12 0 18 -4 15
-10 -3 -5 0 -7 8 -4 8 3 21 -1 28 -8 8 -7 21 -13 29 -13 8 0 14 -5 13 -10 -1
-6 10 -12 23 -13 14 -1 32 -9 40 -17 9 -8 20 -13 25 -10 5 4 9 1 9 -4 0 -6 7
-11 15 -11 8 0 15 -4 15 -10 0 -5 11 -10 25 -10 14 0 25 -5 25 -11 0 -5 5 -7
10 -4 6 3 10 1 10 -6 0 -7 3 -10 6 -6 4 3 13 -1 21 -9 9 -8 23 -12 31 -9 9 3
13 3 9 -1 -9 -9 23 -33 46 -34 9 0 26 -9 37 -20 11 -11 20 -18 20 -15 0 2 10
1 22 -4 16 -6 27 -4 36 8 7 9 11 10 7 4 -10 -20 2 -15 26 10 12 12 18 15 14 7
-7 -12 -6 -13 6 -4 20 16 183 18 173 3 -5 -8 -3 -9 7 -3 20 12 39 14 39 3 0
-6 6 -9 13 -8 27 3 38 -1 31 -13 -4 -7 -4 -10 1 -6 4 4 14 3 22 -3 10 -9 13
-8 13 0 0 8 8 10 23 5 12 -3 19 -3 15 1 -8 9 16 35 32 35 6 0 8 4 5 10 -3 5
-1 10 4 10 6 0 11 7 11 15 0 9 7 18 16 22 8 3 13 11 10 19 -3 7 0 14 5 16 6 2
11 10 12 19 2 8 13 26 25 39 12 13 22 32 22 42 0 11 5 16 10 13 6 -3 10 3 10
14 0 12 5 21 10 21 6 0 10 5 10 12 0 6 8 20 17 30 18 21 24 68 8 68 -7 0 -7 3
0 8 15 10 13 45 -2 55 -8 5 -11 12 -8 18 5 8 -23 14 -47 10 -5 0 -8 6 -8 15 0
10 -6 14 -14 11 -7 -3 -19 0 -25 6 -6 6 -11 7 -11 2 0 -5 -7 0 -16 11 -8 10
-12 12 -8 4 6 -12 4 -12 -12 1 -10 9 -27 15 -37 14 -9 -2 -15 1 -11 6 5 8 -9
13 -28 10 -5 0 -8 4 -8 9 0 6 -8 10 -17 10 -10 0 -27 7 -37 15 -10 8 -23 12
-27 9 -5 -3 -9 0 -9 5 0 6 -3 10 -7 10 -19 -3 -34 2 -29 9 2 4 -3 8 -12 9 -50
4 -60 8 -54 22 3 9 1 12 -7 7 -6 -4 -18 -2 -26 4 -8 7 -15 9 -15 4 0 -5 -7 0
-15 10 -10 13 -15 15 -15 6 0 -9 -5 -8 -16 6 -8 10 -12 12 -8 4 7 -13 5 -13
-9 -1 -9 7 -17 10 -17 5 0 -5 -4 -4 -8 1 -4 6 -16 17 -26 25 -18 13 -19 13
-11 0 8 -13 7 -13 -9 0 -10 8 -25 15 -34 17 -9 1 -22 10 -29 19 -8 11 -13 13
-13 5 0 -7 -5 -9 -10 -6 -6 4 -7 12 -3 18 4 7 0 6 -10 -2 -15 -12 -17 -11 -17
3 0 13 -7 16 -30 13 -19 -4 -29 -1 -27 6 1 7 -6 11 -15 11 -10 -1 -16 2 -13 6
3 4 -2 11 -11 14 -8 3 -12 2 -9 -4 3 -6 -1 -7 -9 -4 -9 3 -13 10 -10 15 3 6
-6 8 -20 5 -16 -3 -25 0 -23 7 1 7 -4 11 -10 9 -7 -1 -13 2 -13 8 0 5 -7 7
-15 4 -8 -4 -15 -1 -15 6 0 6 -4 9 -9 5 -5 -3 -12 -1 -16 5 -3 5 -15 10 -26
10 -11 0 -22 6 -25 14 -3 8 -12 12 -20 9 -8 -3 -24 3 -34 12 -11 10 -20 14
-20 9 0 -5 -4 -4 -8 3 -4 6 -16 13 -27 15 -11 1 -26 9 -33 16 -8 7 -18 10 -23
7 -5 -4 -9 -1 -9 5 0 6 -4 9 -9 5 -5 -3 -12 -1 -16 5 -4 6 -11 8 -16 5 -5 -4
-9 -1 -9 5 0 6 -4 8 -10 5 -5 -3 -10 -2 -10 3 0 6 -7 13 -16 16 -10 4 -13 2
-8 -6 4 -7 -7 -2 -25 11 -18 13 -43 24 -56 25 -13 0 -21 4 -18 9 2 4 -5 7 -17
7 -13 0 -19 4 -14 12 4 6 3 8 -4 5 -14 -9 -43 3 -36 14 3 5 -1 6 -9 3 -8 -3
-21 2 -29 10 -12 11 -18 12 -28 3 -10 -9 -11 -9 -6 1 6 11 -5 17 -26 13 -5 0
-8 3 -8 9 0 6 -3 9 -7 9 -19 -3 -34 2 -29 9 2 4 -7 9 -21 10 -14 1 -32 7 -39
13 -8 6 -20 9 -28 6 -11 -4 -13 -1 -9 10 4 10 2 14 -4 10 -6 -4 -17 -1 -25 6
-7 8 -19 12 -26 9 -6 -2 -12 1 -12 8 0 6 -5 8 -11 4 -6 -3 -14 -2 -18 4 -4 7
-18 13 -31 14 -14 2 -31 9 -38 16 -8 7 -18 9 -24 6 -6 -4 -8 -2 -4 4 3 6 2 13
-4 17 -5 3 -10 0 -10 -7 -1 -9 -5 -7 -14 4 -7 10 -16 15 -19 11 -4 -3 -7 -1
-7 5 0 7 -5 12 -11 12 -5 0 -7 -6 -4 -12 4 -7 -2 -4 -12 7 -10 11 -27 20 -38
20 -11 0 -29 8 -39 17 -11 10 -28 18 -38 18 -10 0 -18 6 -18 13 0 8 -4 7 -10
-3 -5 -8 -10 -10 -10 -4 0 13 -48 36 -60 29 -5 -3 -13 2 -18 11 -6 10 -16 15
-26 11 -10 -4 -16 -1 -16 8 0 8 -3 14 -7 14 -19 -3 -34 2 -29 10 3 4 -6 7 -19
5 -14 -1 -25 3 -25 9 0 7 -5 5 -10 -3 -8 -12 -10 -10 -10 10 0 18 -3 21 -9 11
-7 -11 -10 -11 -17 0 -5 8 -15 14 -21 15 -40 3 -44 5 -37 16 5 7 2 9 -8 5 -9
-3 -21 0 -27 6 -6 6 -11 8 -11 3 0 -4 -7 0 -16 8 -8 9 -20 14 -25 11 -5 -4 -9
-1 -9 6 0 8 -5 7 -17 -2 -9 -8 -14 -9 -11 -4 3 6 0 16 -8 23 -8 7 -14 10 -14
6 0 -3 -8 0 -17 7 -14 12 -16 12 -9 -1 4 -8 -1 -6 -11 6 -10 11 -24 19 -31 16
-6 -2 -12 1 -12 7 0 6 -6 8 -14 5 -7 -3 -20 1 -27 8 -8 7 -21 14 -29 16 -8 2
-18 8 -21 14 -4 6 -9 5 -12 -3 -4 -10 -6 -10 -6 -1 -1 6 -10 12 -22 12 -11 0
-18 4 -15 8 2 4 -5 9 -16 9 -12 1 -24 7 -28 12 -3 6 -18 12 -33 13 -15 1 -27
8 -27 14 0 7 -8 10 -19 7 -11 -3 -21 2 -24 11 -4 9 -13 13 -22 10 -8 -3 -15
-1 -15 6 0 6 -4 8 -10 5 -5 -3 -10 -2 -10 3 0 6 -10 8 -22 6 -13 -2 -17 -1 -9
2 9 4 0 12 -25 21 -21 8 -45 15 -51 15 -7 1 -13 6 -13 11 0 6 -3 7 -7 4 -3 -4
-15 1 -26 10 -15 13 -19 14 -13 3 6 -12 4 -11 -6 1 -7 9 -21 15 -31 13 -9 -1
-15 2 -11 7 3 5 -7 9 -21 9 -17 0 -24 4 -19 12 5 8 2 9 -9 5 -12 -4 -17 -1
-17 10 0 13 -3 13 -15 3 -13 -11 -19 -7 -17 11 1 4 -8 4 -20 1 -12 -3 -19 -1
-15 4 3 6 -4 11 -16 11 -12 1 -23 7 -25 12 -2 5 -11 7 -19 4 -12 -5 -15 -2
-10 10 5 15 3 16 -12 7 -15 -7 -20 -6 -25 6 -3 9 -13 14 -20 11 -8 -3 -16 -1
-18 4 -2 5 -13 11 -26 12 -12 1 -22 8 -22 17 0 12 -2 12 -9 2 -7 -11 -9 -10
-14 3 -4 9 -15 15 -24 13 -11 -2 -17 2 -15 11 2 11 0 12 -11 2 -12 -9 -16 -8
-21 4 -3 9 -11 15 -18 14 -22 -4 -48 12 -41 25 4 6 0 6 -9 -2 -11 -9 -17 -9
-20 -2 -2 6 -13 12 -26 13 -12 0 -22 5 -22 9 0 4 -9 8 -21 8 -13 0 -18 4 -13
12 5 8 2 9 -10 5 -10 -4 -19 -1 -23 9 -5 13 -7 13 -14 2 -7 -11 -9 -11 -9 1 0
7 -6 11 -15 7 -8 -3 -18 1 -23 10 -4 8 -19 16 -32 19 -14 3 -26 9 -28 14 -2 6
-10 7 -18 4 -8 -3 -14 0 -14 7 0 6 -6 10 -12 7 -7 -2 -19 3 -26 12 -8 10 -11
10 -6 2 8 -16 -1 -12 -51 24 -16 11 -36 21 -42 21 -44 3 -53 5 -53 18 0 10 -7
12 -22 8 -16 -4 -19 -2 -13 8 6 10 4 12 -8 7 -10 -3 -17 -2 -17 4 0 6 -4 7
-10 4 -5 -3 -10 -1 -10 5 0 6 -4 9 -8 6 -5 -3 -23 4 -41 15 -18 11 -29 14 -25
7 6 -10 5 -11 -8 -1 -8 7 -19 9 -23 5 -5 -4 -5 -2 -2 4 8 13 -20 27 -34 18 -5
-3 -9 0 -9 5 0 6 -7 11 -15 11 -8 0 -29 9 -47 19 -17 11 -35 18 -40 15 -4 -3
-8 3 -8 13 0 10 -4 14 -8 8 -4 -5 -13 -11 -21 -13 -12 -3 -12 -1 0 14 10 13
10 16 1 10 -7 -4 -32 1 -57 13 -24 11 -50 22 -57 23 -7 2 -15 6 -18 10 -3 3
-14 8 -25 10 -11 1 -26 9 -34 16 -8 8 -22 11 -32 9 -12 -3 -16 0 -12 9 3 9 -2
12 -16 9 -12 -2 -21 0 -21 6 0 5 -9 9 -20 9 -11 0 -20 5 -20 11 0 5 -4 7 -10
4 -5 -3 -10 -1 -10 5 0 6 -4 8 -10 5 -5 -3 -10 0 -10 7 0 9 -3 9 -10 -2 -8
-12 -10 -12 -10 5 0 15 -3 17 -9 7 -7 -11 -9 -11 -14 2 -4 9 -13 13 -22 10 -8
-3 -15 -1 -15 6 0 6 -4 8 -10 5 -5 -3 -10 -1 -10 5 0 7 -7 9 -16 6 -8 -3 -13
-2 -10 3 3 5 -1 11 -8 14 -8 3 -17 1 -20 -6 -3 -9 -5 -9 -5 1 -1 6 -8 12 -16
12 -9 0 -18 6 -21 14 -3 8 -12 12 -20 9 -8 -3 -14 -1 -14 4 0 5 -9 9 -20 10
-22 2 -60 33 -40 33 6 0 8 5 5 10 -6 9 7 14 21 8 3 -2 10 5 15 15 6 9 17 17
24 17 8 0 15 5 15 11 0 5 5 7 10 4 6 -3 10 1 10 9 0 9 7 16 15 16 8 0 15 5 15
11 0 5 4 8 8 5 5 -3 14 4 22 14 8 10 17 17 21 14 4 -2 16 7 27 21 11 13 22 21
26 18 3 -3 6 -1 6 6 0 7 5 9 10 6 6 -3 10 1 10 9 0 9 7 16 15 16 8 0 15 5 15
11 0 5 5 7 10 4 6 -3 10 1 10 10 0 9 4 14 9 11 5 -3 12 1 15 10 3 8 10 13 15
10 5 -3 12 1 15 10 3 8 10 13 15 9 5 -3 12 4 16 15 4 12 15 20 27 20 12 0 19
3 15 6 -8 8 25 44 40 44 7 0 13 7 13 15 0 8 5 15 12 15 6 0 25 15 41 33 17 17
27 25 23 17 -5 -9 -2 -9 7 2 8 10 18 14 22 10 5 -4 5 -1 1 6 -4 7 -1 15 8 18
9 3 14 10 11 14 -3 4 2 11 11 14 10 4 13 2 8 -7 -4 -6 4 -1 18 13 13 14 22 29
20 34 -3 5 2 6 12 3 9 -4 14 -3 11 2 -7 13 35 42 49 34 6 -4 4 2 -4 13 -8 10
-10 16 -5 11 4 -4 20 3 33 15 14 13 22 17 17 9 -6 -11 -2 -13 19 -9 15 3 26 1
26 -6 0 -6 5 -4 10 4 5 8 10 10 10 3 0 -6 11 -10 25 -9 13 2 22 -1 19 -6 -3
-5 0 -9 7 -7 29 3 50 -1 45 -10 -7 -10 13 -9 31 2 6 4 15 2 18 -4 4 -5 13 -8
21 -5 8 3 14 2 14 -3 0 -5 11 -11 25 -13 13 -3 22 -1 19 3 -8 14 6 10 22 -6 9
-8 28 -13 44 -11 17 2 30 -1 30 -5 0 -5 15 -9 34 -9 19 0 38 -5 41 -11 4 -6
13 -8 21 -5 8 3 14 0 14 -7 0 -9 2 -9 8 0 6 10 15 9 37 -3 16 -8 37 -13 47
-11 9 3 25 -1 35 -8 12 -9 23 -10 36 -4 13 7 19 6 23 -6 3 -8 10 -15 16 -15 5
0 6 6 2 13 -5 9 -4 9 6 0 7 -6 19 -9 26 -6 8 3 14 1 14 -4 0 -10 4 -11 51 -16
14 -2 30 -7 37 -11 7 -4 12 -2 12 6 0 9 3 10 8 2 8 -13 65 -24 165 -33 5 -1 5
-5 2 -11 -4 -6 1 -7 11 -3 11 4 15 2 11 -4 -4 -6 3 -8 17 -6 13 3 27 0 31 -7
5 -8 10 -8 21 1 11 9 14 9 14 -1 0 -8 10 -11 30 -8 20 3 31 0 35 -10 4 -11 9
-12 17 -4 8 8 17 6 34 -5 13 -8 24 -12 24 -9 0 4 10 2 21 -5 16 -8 20 -8 14 1
-6 9 -2 9 14 0 12 -6 35 -12 51 -12 16 -1 27 -5 24 -10 -8 -12 10 -10 25 4 11
10 13 10 7 1 -7 -13 -1 -15 42 -16 12 0 22 -4 22 -9 0 -5 8 -8 18 -7 33 3 43
-1 36 -13 -6 -10 -4 -10 7 0 15 14 33 16 25 3 -4 -5 3 -7 14 -4 13 3 20 0 20
-8 0 -11 2 -11 10 1 6 9 10 10 10 3 0 -6 9 -10 20 -8 11 2 22 0 25 -5 3 -4 15
-6 27 -2 13 3 19 1 15 -5 -4 -7 5 -10 23 -8 17 1 30 -2 30 -7 0 -5 5 -6 10 -3
6 3 10 2 10 -3 0 -5 11 -7 25 -4 15 2 25 0 25 -7 0 -9 5 -9 21 0 15 7 19 8 15
0 -5 -7 3 -10 23 -7 17 2 28 0 26 -5 -3 -4 -1 -10 5 -14 5 -3 10 0 10 7 0 10
2 10 9 0 4 -8 11 -13 15 -13 3 1 9 0 14 0 27 -4 38 -3 44 6 4 6 8 2 8 -8 0
-18 20 -19 32 -2 5 6 8 5 8 -4 0 -8 6 -11 16 -7 10 4 13 2 8 -6 -5 -8 -2 -9 9
-5 10 4 17 1 17 -5 0 -9 3 -9 11 -1 9 9 18 7 37 -5 21 -14 24 -14 17 -2 -8 13
-6 13 8 1 9 -7 23 -11 31 -8 7 3 18 1 23 -4 6 -6 25 -11 42 -11 17 -1 34 -5
37 -10 3 -4 21 -8 40 -8 23 0 33 -4 28 -11 -5 -8 -1 -8 14 0 14 7 23 8 27 1 3
-5 17 -10 31 -10 13 0 24 -3 24 -8 0 -4 12 -8 28 -8 15 -1 36 -5 46 -9 15 -7
17 -5 11 6 -5 8 -1 7 12 -4 11 -9 36 -17 56 -17 23 0 37 -5 37 -12 0 -9 4 -8
10 2 8 13 14 8 12 -10 0 -3 15 -4 35 -2 20 3 33 1 30 -4 -3 -5 13 -10 34 -11
22 0 47 -7 56 -15 14 -11 16 -11 8 2 -6 12 -5 12 5 3 7 -6 18 -9 24 -7 7 3 26
0 42 -7 29 -12 68 -20 114 -22 14 -1 29 -8 34 -16 7 -11 10 -11 17 0 7 11 9
11 9 1 0 -9 7 -11 20 -7 12 4 20 2 20 -5 0 -6 4 -9 9 -6 5 4 12 0 14 -6 4 -10
6 -10 6 0 1 10 6 10 21 2 11 -6 25 -8 31 -5 5 4 16 2 23 -4 7 -6 22 -9 34 -6
12 2 22 -1 22 -7 0 -5 7 -8 15 -5 8 4 17 1 21 -4 3 -6 17 -9 30 -6 14 2 27 0
31 -6 4 -6 1 -7 -7 -2 -9 5 -11 4 -6 -4 6 -9 11 -9 22 0 11 9 14 9 14 -1 0 -7
8 -10 20 -7 11 3 20 0 20 -6 0 -7 5 -5 10 3 7 11 10 11 10 2 0 -7 5 -10 10 -7
6 3 10 2 10 -4 0 -10 19 -9 38 2 7 5 14 2 18 -7 3 -8 12 -12 19 -10 7 3 16 1
20 -5 9 -16 38 -14 30 2 -4 6 -1 5 7 -3 7 -9 21 -14 31 -12 9 2 17 -2 17 -8 0
-9 5 -9 17 1 11 10 14 10 9 2 -5 -10 4 -13 33 -13 26 0 41 -5 41 -12 0 -10 3
-9 9 1 6 9 11 10 15 2 4 -6 16 -11 27 -11 13 0 18 -4 13 -12 -5 -10 -4 -10 6
-1 10 9 18 9 34 1 12 -6 22 -11 24 -10 8 6 52 0 48 -6 -3 -5 1 -9 9 -9 8 0 15
5 15 11 0 7 3 6 8 -1 4 -7 22 -13 40 -15 18 -1 32 -6 32 -10 0 -4 5 -8 11 -8
5 0 7 6 3 13 -4 6 3 3 16 -8 13 -11 20 -14 16 -7 -4 6 -2 12 3 12 6 0 11 -4
11 -10 0 -5 7 -6 17 -3 12 5 14 3 8 -8 -8 -12 -6 -12 8 0 14 11 18 11 23 -2 4
-12 11 -14 30 -7 18 7 26 6 30 -3 3 -8 18 -13 34 -12 21 1 30 -3 31 -14 0 -10
2 -12 6 -3 5 13 33 17 33 4 0 -7 29 -13 78 -15 12 -1 22 -5 22 -9 0 -4 11 -8
25 -8 14 0 25 -6 25 -12 0 -9 4 -8 11 2 8 11 12 12 16 3 2 -7 9 -13 14 -13 6
0 7 6 3 12 -6 11 -4 11 7 0 7 -6 24 -12 37 -12 14 0 21 -4 16 -11 -4 -8 0 -8
15 0 14 8 21 8 21 1 0 -5 18 -10 41 -10 22 0 38 -3 35 -8 -2 -4 14 -8 36 -9
22 -1 50 -9 63 -17 22 -15 24 -15 18 0 -5 15 -3 15 20 -1 15 -9 27 -13 27 -9
0 5 5 2 10 -6 8 -12 10 -12 10 -1 0 10 3 11 14 2 10 -9 16 -9 21 -1 4 6 12 9
19 7 7 -3 13 4 14 16 0 12 7 26 15 32 7 6 13 26 12 47 0 20 3 34 8 31 4 -2 5
8 1 23 -4 15 -3 25 2 21 5 -3 9 17 9 44 -1 27 3 49 7 49 4 0 4 7 1 17 -4 9 -2
14 3 11 5 -4 9 15 8 43 -1 27 2 49 7 49 9 0 6 20 -5 39 -6 9 -5 12 2 7 6 -3
13 -2 17 4 3 5 1 10 -6 10 -7 0 -8 4 -2 13 5 6 8 22 7 35 0 12 3 22 9 22 5 0
4 6 -2 14 -9 11 -9 15 1 18 10 4 10 9 -2 23 -9 11 -10 16 -2 11 6 -4 12 -2 12
3 0 6 -4 11 -10 11 -5 0 -10 7 -10 16 0 8 -4 12 -10 9 -5 -3 -10 -1 -10 5 0 6
-4 9 -9 6 -5 -4 -11 -1 -13 5 -2 7 -24 13 -48 15 -25 1 -45 3 -45 4 0 1 -13 3
-28 5 -16 1 -33 8 -38 16 -5 8 -9 9 -9 3 0 -12 -49 -12 -69 1 -8 4 -29 8 -47
7 -18 -1 -36 3 -39 8 -3 5 -12 7 -20 3 -9 -3 -15 1 -15 8 0 12 -2 12 -9 1 -6
-11 -11 -10 -25 3 -10 10 -16 12 -16 5 0 -8 -7 -9 -17 -5 -10 4 -22 8 -28 9
-5 1 -14 4 -20 7 -5 2 -25 4 -42 4 -18 0 -33 3 -33 8 0 4 -8 3 -19 -2 -13 -7
-24 -6 -36 3 -10 7 -27 11 -37 8 -10 -2 -18 0 -18 6 0 11 -25 10 -36 0 -8 -9
-35 2 -30 11 3 4 -8 6 -25 5 -16 -1 -29 2 -29 7 0 6 -9 5 -21 -2 -17 -9 -20
-8 -14 2 6 9 3 11 -8 6 -9 -3 -18 -1 -21 6 -3 9 -5 8 -5 -1 -1 -9 -6 -10 -20
-3 -10 6 -21 7 -25 4 -3 -3 -6 0 -6 7 0 7 -3 10 -6 7 -4 -3 -16 -1 -28 5 -20
10 -20 10 -6 -7 14 -17 14 -17 -17 -1 -18 9 -33 14 -33 10 0 -4 -6 -1 -14 5
-10 8 -16 9 -21 1 -3 -6 -12 -7 -18 -3 -7 4 -27 8 -46 9 -18 1 -36 6 -40 11
-3 5 -13 8 -21 8 -8 -1 -21 3 -28 8 -9 7 -11 5 -6 -9 5 -18 5 -18 -10 0 -12
15 -16 16 -16 5 0 -12 -2 -12 -9 0 -5 8 -16 11 -25 8 -9 -4 -16 -2 -16 4 0 6
-5 7 -10 4 -6 -4 -18 -1 -27 7 -12 9 -15 9 -9 0 4 -6 2 -12 -3 -12 -6 0 -11 5
-11 10 0 6 -5 10 -11 10 -6 0 -7 -6 -2 -12 4 -7 -6 -5 -21 6 -17 11 -25 13
-20 5 6 -11 4 -11 -10 0 -14 12 -19 12 -26 2 -5 -9 -9 -10 -11 -2 -2 6 -19 12
-37 14 -17 1 -32 6 -32 11 0 5 -7 3 -15 -4 -8 -7 -15 -8 -15 -3 0 10 -2 10
-57 14 -18 1 -33 6 -33 11 0 5 -7 5 -17 0 -12 -7 -24 -5 -42 7 -21 13 -24 13
-16 1 8 -13 7 -13 -8 -1 -9 7 -17 10 -17 5 0 -5 -5 -2 -10 6 -7 11 -10 11 -10
2 0 -10 -5 -10 -21 -1 -17 9 -23 8 -30 -2 -8 -12 -13 -6 -11 12 1 3 -9 5 -21
4 -12 -1 -27 2 -34 7 -7 5 -14 5 -18 -2 -3 -6 -11 -8 -16 -4 -5 3 -7 9 -5 13
3 4 -13 6 -34 4 -21 -1 -42 2 -45 8 -5 7 -12 6 -23 -3 -9 -7 -13 -8 -9 -2 5 8
-6 12 -34 12 -22 1 -47 6 -55 13 -11 9 -14 9 -14 -1 0 -10 -3 -10 -15 0 -8 7
-21 10 -30 7 -8 -4 -21 0 -29 8 -11 11 -15 12 -19 2 -3 -9 -7 -9 -19 1 -9 7
-22 10 -31 6 -8 -3 -18 0 -22 5 -3 6 -11 9 -16 6 -5 -4 -15 -3 -21 2 -7 4 -25
6 -40 4 -14 -1 -28 2 -31 6 -3 5 -24 9 -46 8 -23 -1 -41 2 -41 5 0 5 -39 11
-92 13 -10 1 -18 5 -18 10 0 4 -4 6 -9 2 -5 -3 -12 -1 -16 5 -4 7 -12 7 -26 0
-12 -7 -19 -7 -19 -1 0 5 -9 8 -20 6 -11 -2 -20 0 -20 4 0 5 -12 8 -27 9 -48
0 -54 2 -48 12 3 6 -1 7 -9 4 -9 -3 -13 -11 -10 -18 3 -6 -1 -3 -9 6 -10 13
-16 15 -25 6 -7 -7 -12 -8 -12 -2 0 5 -12 11 -26 12 -15 1 -32 6 -38 11 -7 6
-18 6 -26 1 -9 -6 -18 -5 -23 3 -7 9 -10 9 -14 -1 -4 -10 -9 -9 -20 5 -8 10
-11 11 -7 3 5 -12 4 -12 -6 -3 -7 6 -19 9 -26 6 -8 -3 -14 1 -14 8 0 11 -3 11
-10 -1 -9 -13 -10 -13 -10 0 0 13 -1 13 -10 0 -5 -8 -10 -10 -10 -4 0 10 -12
14 -52 15 -10 0 -18 4 -18 8 0 4 -7 8 -15 8 -8 0 -15 -5 -15 -11 0 -6 -5 -5
-12 2 -7 7 -26 12 -43 12 -17 0 -37 6 -44 13 -11 10 -13 10 -7 0 4 -7 2 -13
-3 -13 -6 0 -11 4 -11 10 0 5 -13 8 -30 6 -16 -2 -30 1 -30 6 0 5 -4 7 -9 3
-5 -3 -13 -1 -16 5 -5 8 -11 7 -21 -1 -9 -7 -14 -8 -14 -1 0 6 -8 9 -17 8 -10
-2 -21 2 -25 8 -5 7 -8 7 -8 -3 0 -11 -3 -11 -16 0 -19 15 -64 19 -64 4 0 -6
-3 -6 -8 1 -11 17 -42 25 -42 11 0 -8 -4 -7 -10 3 -5 8 -12 11 -16 7 -4 -4
-14 -1 -22 6 -10 8 -13 8 -9 0 5 -8 -5 -8 -36 2 -23 6 -48 10 -56 7 -8 -2 -11
0 -8 5 3 5 0 10 -8 10 -8 0 -12 -4 -9 -9 3 -4 -2 -5 -10 -2 -9 3 -16 10 -16
14 0 5 -9 6 -20 3 -11 -3 -28 1 -37 8 -12 10 -14 10 -9 2 4 -7 2 -13 -3 -13
-6 0 -11 5 -11 11 0 8 -4 8 -14 0 -11 -9 -16 -9 -21 -1 -4 7 -16 10 -26 7 -10
-3 -22 -1 -25 4 -3 5 -10 7 -15 4 -5 -4 -9 -1 -9 6 0 9 -3 9 -14 0 -8 -7 -17
-8 -20 -3 -3 5 -15 12 -26 15 -18 5 -19 3 -8 -11 9 -12 6 -12 -10 2 -12 11
-25 16 -29 13 -3 -4 -12 -2 -20 4 -10 9 -13 8 -13 -2 -1 -9 -4 -8 -11 4 -8 14
-14 16 -25 6 -8 -6 -14 -7 -14 -2 0 6 -11 8 -25 5 -16 -3 -25 0 -25 8 0 9 -4
9 -17 -1 -9 -8 -14 -9 -10 -3 4 7 -7 11 -30 12 -19 1 -41 6 -49 13 -9 7 -19 7
-31 0 -13 -7 -23 -5 -37 7 -11 9 -16 11 -12 5 5 -10 1 -11 -17 -4 -14 6 -28 7
-32 3 -3 -3 -10 0 -16 8 -7 13 -10 13 -18 1 -5 -8 -10 -9 -12 -2 -2 5 -19 11
-36 13 -18 1 -33 7 -33 13 0 6 -3 7 -8 0 -12 -17 -35 -17 -28 0 4 11 2 14 -7
8 -22 -14 -39 -12 -33 4 3 8 6 17 6 19 0 3 6 2 13 -2 8 -5 8 -2 -2 9 -12 15
-11 17 3 17 9 0 16 7 16 15 0 9 7 18 15 21 8 4 15 10 15 16 0 5 7 16 15 24 12
12 15 12 16 2 0 -7 5 -1 11 15 6 17 16 26 26 25 11 -2 16 3 14 15 -2 9 3 17 9
17 7 0 9 3 6 7 -4 3 13 25 36 48 24 23 41 47 39 55 -3 7 0 10 7 6 6 -4 11 -3
11 2 0 16 57 72 66 64 4 -4 3 0 -4 10 -15 18 0 34 20 22 7 -5 9 -2 5 9 -4 11
1 18 14 22 10 4 17 11 14 16 -4 5 1 12 9 15 9 3 13 10 10 15 -3 5 0 9 5 9 6 0
11 7 11 15 0 8 5 15 11 15 5 0 7 -5 3 -12 -4 -7 -3 -8 5 -4 6 4 9 11 6 16 -3
5 3 18 14 29 11 11 17 22 13 26 -3 3 4 8 16 12 12 3 19 9 16 14 -3 5 -1 9 5 9
6 0 7 7 4 17 -4 11 -3 14 5 9 7 -4 12 -2 12 4 0 7 6 10 13 7 9 -3 13 3 13 16
-1 17 7 23 37 28 21 3 40 3 42 -1 3 -4 16 -5 30 -2 16 3 25 0 25 -8 0 -10 4
-9 16 1 13 10 17 10 25 -2 8 -13 13 -6 10 16 -1 6 5 2 12 -7 11 -14 16 -15 27
-5 10 10 11 9 5 -3 -8 -13 -7 -13 8 -1 14 11 17 11 17 0 0 -11 2 -11 10 1 8
13 10 13 10 1 0 -11 4 -10 16 5 8 10 13 14 10 8 -3 -7 1 -14 9 -18 8 -3 15 0
15 7 0 8 3 9 8 1 9 -14 82 -14 82 0 0 7 3 8 8 1 7 -10 34 -14 106 -16 22 0 49
-5 60 -11 19 -10 20 -9 8 5 -12 14 -11 15 17 7 17 -5 31 -6 31 -2 0 4 5 0 10
-8 6 -10 10 -11 10 -2 0 6 7 12 16 12 8 0 12 -4 9 -10 -3 -6 1 -7 9 -4 9 3 13
10 10 15 -8 14 3 10 20 -7 12 -12 16 -12 16 -2 0 10 2 10 9 -1 6 -10 13 -10
28 -3 10 6 25 7 32 3 7 -5 28 -6 48 -4 22 2 32 0 28 -7 -4 -7 2 -7 19 0 19 7
29 5 41 -6 13 -14 15 -13 15 7 0 22 0 22 16 3 15 -18 15 -18 10 0 -5 14 -3 16
6 9 25 -20 58 -22 58 -5 0 14 2 14 9 3 5 -8 14 -10 21 -6 9 5 11 4 6 -3 -5 -9
3 -10 29 -6 28 4 35 3 30 -7 -6 -8 -4 -10 6 -4 22 14 60 15 52 2 -4 -8 -1 -7
9 1 11 9 18 10 23 2 4 -7 13 -7 27 1 15 8 19 8 14 0 -9 -14 17 -14 31 0 8 8
13 8 17 0 10 -15 29 -14 20 2 -6 10 -4 10 7 0 7 -7 17 -13 22 -13 4 0 5 6 1
13 -5 8 -2 8 9 -2 13 -10 20 -11 31 -2 10 9 15 8 19 -4 5 -11 12 -13 31 -6 13
6 26 7 30 4 3 -3 42 -6 88 -6 47 0 86 -5 91 -11 5 -8 10 -6 17 4 9 13 11 13
20 0 9 -13 10 -13 10 0 0 13 1 13 10 0 9 -13 11 -13 20 0 8 12 11 13 19 1 7
-11 9 -11 14 0 4 10 6 10 6 2 1 -7 6 -13 12 -13 5 0 8 4 5 8 -3 5 1 9 9 9 8 0
15 -4 15 -8 0 -5 7 -5 17 -2 11 4 14 3 9 -5 -9 -15 26 -3 36 12 5 8 8 8 8 0 0
-12 58 -17 178 -16 28 0 52 -4 52 -10 0 -5 5 -6 10 -3 6 4 7 12 3 18 -3 7 3 4
14 -6 14 -12 23 -15 28 -8 3 6 11 11 16 11 6 0 7 -6 3 -12 -5 -9 -2 -9 9 1 14
11 17 11 17 0 0 -11 2 -11 10 1 9 13 10 13 10 0 0 -13 1 -13 10 0 5 8 10 10
10 4 0 -12 78 -13 98 0 7 4 15 1 18 -9 6 -14 9 -14 30 0 17 11 22 11 18 2 -3
-8 3 -13 15 -13 11 0 17 4 14 9 -3 5 4 4 16 -2 16 -9 21 -9 21 0 0 7 8 5 20
-6 18 -17 20 -17 14 -2 -3 10 -1 17 5 17 6 0 11 -4 11 -10 0 -5 5 -10 11 -10
5 0 7 5 3 12 -5 7 -3 8 7 3 7 -5 26 -8 40 -7 15 1 38 -2 52 -7 16 -7 28 -6 36
2 8 8 11 8 11 -1 0 -8 7 -9 27 -1 19 7 29 7 31 0 3 -8 10 -8 24 0 16 9 19 8
13 -2 -6 -8 -4 -11 7 -6 9 3 21 0 28 -6 10 -9 11 -9 6 1 -9 16 6 16 23 0 11
-11 12 -10 7 0 -7 12 11 12 49 1 6 -2 21 1 34 5 18 6 26 4 33 -8 6 -11 15 -13
31 -7 19 7 117 8 125 1 2 -3 41 -3 45 0 9 6 37 7 37 0 0 -9 26 -7 36 3 4 4 13
-1 21 -11 8 -9 12 -12 9 -5 -4 6 -2 14 4 18 5 3 10 1 10 -6 0 -8 5 -7 17 2 11
10 14 10 9 2 -9 -17 6 -17 23 0 10 8 12 8 7 0 -4 -7 1 -12 11 -12 10 0 44 -1
75 -3 34 -2 60 1 62 7 2 5 5 4 5 -4 1 -10 4 -11 15 -2 9 8 16 8 20 2 4 -6 13
-8 21 -4 9 3 15 -1 15 -8 0 -11 3 -11 10 1 8 12 10 12 10 1 0 -11 3 -11 16 0
13 10 17 10 25 -2 6 -10 9 -11 9 -1 0 8 5 10 12 6 16 -10 88 -11 82 -2 -3 5 0
8 5 8 6 0 11 -4 11 -9 0 -10 19 -9 37 2 6 4 15 2 19 -4 5 -8 3 -9 -6 -4 -9 6
-11 4 -5 -4 5 -9 11 -9 17 -3 6 6 17 8 24 5 8 -3 14 1 14 8 0 11 2 11 10 -1 5
-8 12 -11 16 -8 4 4 16 3 27 -3 15 -9 18 -8 12 2 -6 9 -3 10 11 4 10 -4 28 -7
39 -7 11 1 23 -4 27 -11 6 -9 8 -9 8 1 0 7 5 10 10 7 6 -3 10 -1 10 5 0 7 6 8
18 1 11 -6 24 -6 35 0 11 7 17 6 17 -1 0 -5 -5 -10 -12 -10 -6 0 -9 -2 -6 -5
10 -10 38 7 31 19 -4 8 -2 8 7 -1 7 -6 19 -9 26 -6 8 3 14 0 14 -6 0 -18 17
-12 23 8 3 13 12 18 31 16 14 -2 24 1 21 5 -3 5 -1 11 5 15 6 4 8 11 5 16 -4
5 0 9 7 9 9 0 9 3 -2 10 -11 7 -11 10 -2 10 7 0 10 5 7 10 -3 6 -2 10 3 10 11
0 8 53 -3 83 -4 10 -3 17 4 17 9 0 9 5 0 21 -9 17 -8 20 2 14 8 -6 10 -4 4 5
-11 18 -12 54 -2 61 5 3 1 13 -8 23 -15 14 -15 16 0 16 13 0 14 4 5 20 -8 14
-8 20 0 20 6 0 9 4 5 9 -9 16 -13 71 -4 71 5 0 6 7 3 15 -4 8 -11 12 -18 9 -6
-3 -3 1 6 8 11 10 14 19 8 28 -6 9 -5 17 2 21 9 6 8 12 -2 23 -7 9 -10 19 -7
22 9 9 -40 54 -58 54 -9 0 -14 4 -11 8 3 5 -11 9 -30 10 -25 1 -33 -2 -27 -11
5 -9 3 -9 -9 0 -8 7 -18 10 -22 6 -10 -10 -46 -11 -40 -1 8 12 -10 10 -24 -4
-9 -9 -12 -9 -12 3 0 12 -2 12 -10 -1 -9 -13 -10 -13 -10 0 0 13 -1 13 -10 0
-8 -13 -10 -12 -10 4 0 20 0 20 -15 0 -13 -16 -16 -17 -25 -4 -9 13 -10 13
-10 0 0 -9 -3 -11 -8 -5 -10 14 -32 17 -32 4 0 -8 -4 -8 -13 0 -10 8 -17 7
-25 -1 -9 -9 -12 -9 -12 1 0 11 -3 11 -15 1 -12 -10 -15 -10 -15 0 0 10 -3 10
-15 0 -12 -10 -15 -10 -15 1 0 11 -2 11 -10 -1 -6 -10 -10 -11 -10 -2 0 6 -5
12 -11 12 -5 0 -8 -4 -5 -8 2 -4 -4 -8 -15 -8 -10 0 -19 4 -19 8 0 5 -9 4 -20
-2 -14 -8 -20 -8 -20 0 0 7 -6 7 -21 -1 -15 -7 -24 -8 -32 0 -6 6 -17 7 -26 2
-20 -11 -32 -11 -52 0 -10 5 -20 4 -27 -3 -9 -9 -12 -8 -12 3 0 12 -2 12 -10
-1 -8 -13 -10 -13 -10 -1 0 12 -3 12 -12 3 -7 -7 -17 -12 -23 -12 -5 0 -3 5 5
11 12 8 10 9 -10 7 -14 -2 -28 -7 -32 -13 -5 -6 -8 -5 -8 4 0 11 -3 11 -17 0
-14 -12 -16 -12 -8 0 6 11 4 13 -9 8 -10 -4 -26 -2 -36 3 -16 8 -18 7 -14 -4
4 -11 0 -13 -15 -9 -11 3 -18 10 -15 17 3 6 -2 2 -10 -8 -9 -11 -16 -15 -16
-9 0 12 -18 12 -37 0 -6 -4 -15 -2 -19 4 -5 8 -3 9 6 4 9 -6 11 -4 5 5 -6 10
-11 9 -22 -5 -7 -11 -13 -14 -13 -8 0 13 -18 12 -39 -1 -10 -6 -12 -5 -7 2 4
7 1 12 -8 12 -9 0 -16 -6 -16 -12 0 -9 -3 -9 -8 -3 -8 12 -27 13 -38 2 -4 -4
-12 -7 -18 -7 -6 0 -5 4 2 9 8 4 -18 8 -60 7 -40 0 -76 -5 -80 -11 -5 -6 -8
-5 -8 4 0 11 -3 11 -17 0 -9 -8 -14 -9 -10 -3 5 8 -15 11 -66 9 -39 -1 -76 -3
-82 -5 -5 -1 -12 -1 -15 0 -3 1 -37 3 -77 4 -48 1 -70 -1 -65 -8 3 -6 -1 -6
-9 1 -13 10 -40 11 -74 3 -5 -1 -12 -1 -15 0 -15 7 -168 5 -163 -3 3 -5 -3 -4
-14 1 -20 11 -61 11 -80 -1 -5 -3 -13 -3 -17 0 -10 11 -108 10 -130 0 -10 -5
-16 -5 -13 0 6 10 -184 10 -201 -1 -7 -4 -12 -4 -12 1 0 9 -187 9 -197 -1 -3
-3 -12 -1 -20 5 -10 9 -17 8 -28 -1 -8 -7 -15 -8 -15 -3 0 5 -9 9 -20 10 -11
1 -18 -2 -16 -6 4 -6 -28 -7 -44 -1 -14 6 -78 4 -97 -2 -13 -4 -23 -4 -23 1 0
5 -11 8 -24 7 -13 0 -22 -4 -19 -8 2 -5 0 -8 -6 -8 -5 0 -11 6 -14 13 -3 9 -7
9 -19 -1 -13 -10 -17 -10 -20 0 -4 10 -8 10 -21 -1 -10 -7 -17 -10 -17 -5 0 5
-19 8 -42 7 -28 -1 -50 5 -63 15 -19 16 -19 16 -6 0 15 -21 2 -24 -18 -5 -12
10 -13 8 -7 -8 6 -16 5 -18 -5 -7 -7 6 -21 12 -32 12 -12 0 -16 -4 -11 -12 4
-7 -2 -5 -13 5 -15 13 -23 15 -28 7 -6 -9 -10 -9 -16 1 -5 8 -9 9 -9 4 0 -6
-9 -11 -20 -12 -12 -1 -18 3 -14 9 5 7 1 7 -12 0 -13 -7 -25 -7 -37 0 -14 7
-17 7 -13 -1 10 -15 -7 -14 -23 2 -12 10 -13 8 -7 -8 5 -17 3 -16 -16 5 -14
16 -19 19 -15 8 7 -21 -3 -23 -22 -5 -11 9 -13 9 -7 0 5 -8 1 -13 -9 -13 -10
0 -13 5 -9 12 5 7 3 8 -7 2 -8 -4 -27 -7 -43 -5 -21 2 -26 -1 -20 -11 4 -7 -3
-4 -16 7 -13 11 -20 14 -16 8 4 -7 2 -13 -3 -13 -6 0 -11 6 -11 13 0 8 -3 8
-9 -2 -8 -13 -12 -13 -27 0 -16 13 -17 12 -11 -6 7 -19 6 -19 -7 -2 -10 13
-15 15 -18 5 -4 -10 -9 -10 -23 2 -11 9 -16 10 -11 3 4 -7 3 -13 -3 -13 -5 0
-12 4 -16 10 -3 5 -12 7 -20 4 -8 -4 -12 -11 -8 -17 4 -6 1 -7 -8 -2 -21 13
-92 14 -108 1 -12 -9 -14 -8 -9 4 4 11 0 16 -12 16 -10 0 -16 -4 -14 -8 7 -11
-33 -4 -43 7 -5 4 -3 6 2 2 6 -3 17 9 24 26 8 18 23 43 35 56 13 15 15 21 6
17 -8 -4 -7 -1 3 7 10 9 19 19 19 24 1 16 23 58 41 78 9 10 15 25 13 31 -3 7
2 15 10 18 8 3 13 11 12 18 -2 7 2 12 8 11 6 -1 11 6 11 15 0 28 15 62 24 56
5 -3 9 4 9 15 0 11 8 25 18 30 9 6 11 11 5 11 -7 0 -13 5 -13 11 0 5 5 7 10 4
6 -3 10 0 10 9 0 8 4 16 9 18 5 2 11 12 13 23 1 11 9 25 15 30 7 6 14 22 15
37 1 15 4 25 7 23 2 -3 10 7 18 22 7 14 11 28 9 31 -3 2 2 11 10 19 8 9 13 20
11 27 -2 6 3 17 12 24 13 11 13 12 1 6 -10 -5 -8 1 5 16 11 13 14 20 8 16 -9
-5 -11 -2 -7 8 3 9 10 14 15 11 4 -3 6 4 4 15 -2 11 1 20 6 20 6 0 7 5 4 10
-3 5 -1 10 6 10 8 0 8 4 -1 15 -10 13 -9 15 11 16 13 0 18 3 11 6 -10 4 -10 8
0 21 11 13 11 14 -1 7 -8 -5 -4 7 9 25 13 18 19 30 12 26 -7 -4 -12 -2 -12 3
0 6 5 11 10 11 6 0 9 3 9 8 -1 4 -1 18 0 32 1 20 3 22 11 10 6 -9 10 -10 10
-3 0 6 -4 15 -10 18 -6 4 -4 15 5 29 8 12 12 26 8 29 -3 4 0 7 8 7 11 0 11 2
1 9 -11 7 -11 10 0 22 7 8 13 24 12 37 -1 12 2 22 7 22 4 0 6 9 4 20 -2 11 1
20 7 20 5 0 7 8 4 17 -4 9 -1 20 6 25 10 6 10 8 -1 8 -11 0 -10 4 5 16 10 8
13 12 5 8 -11 -6 -13 -3 -7 12 5 10 8 26 9 34 0 8 4 21 10 28 6 8 6 12 -3 12
-10 0 -10 3 0 15 6 8 9 19 5 25 -3 5 1 10 10 10 15 0 15 1 1 16 -19 18 -21 28
-4 18 8 -5 9 -2 5 9 -4 10 -1 17 6 17 8 0 6 4 -3 10 -9 6 -11 10 -3 10 7 0 10
7 7 15 -4 8 -1 15 6 15 6 0 8 5 3 13 -4 6 -8 18 -9 25 -2 11 0 11 14 0 12 -10
14 -10 8 0 -13 22 -17 62 -6 62 7 0 8 6 1 19 -6 10 -7 22 -3 26 4 3 8 21 9 38
5 107 9 133 18 139 6 5 4 8 -5 8 -13 0 -13 1 0 10 13 9 13 11 0 20 -12 8 -12
10 -1 10 11 0 11 3 0 17 -12 15 -12 16 4 10 15 -6 16 -4 5 16 -6 12 -12 30
-13 39 -1 15 1 15 13 5 13 -10 14 -9 3 11 -6 12 -9 22 -5 22 3 0 1 6 -5 14 -9
11 -9 16 0 22 8 5 9 3 4 -6 -6 -9 -4 -11 4 -6 9 6 9 12 -3 25 -12 14 -13 20
-3 30 9 9 9 14 -3 21 -12 8 -12 10 4 10 19 0 19 0 0 22 -10 12 -14 18 -8 15 7
-4 14 3 16 18 3 13 2 24 -1 23 -20 -2 -22 4 -5 17 10 8 15 15 9 14 -23 -3 -29
2 -15 11 13 9 13 11 0 20 -13 8 -12 10 4 10 20 0 20 0 0 15 -11 8 -14 14 -6
15 9 0 10 5 2 19 -7 14 -7 22 1 27 8 4 7 9 -2 15 -11 7 -11 9 -1 9 8 0 10 5 6
12 -12 19 -12 68 0 68 8 0 8 2 0 8 -5 4 -10 28 -10 54 1 27 -3 48 -7 48 -4 0
-3 9 3 20 9 17 8 19 -7 13 -16 -6 -16 -5 -4 11 10 12 11 20 3 28 -7 7 -7 19
-1 35 6 18 6 22 -3 17 -7 -5 -9 -2 -5 8 3 9 0 21 -6 28 -9 10 -9 11 2 5 11 -7
13 -4 6 11 -4 10 -8 31 -8 47 1 15 -4 27 -9 27 -6 0 -5 7 2 15 10 12 10 15 -1
15 -11 0 -11 2 1 10 8 5 10 10 5 10 -6 0 -12 11 -13 25 -1 14 -3 36 -4 50 -1
14 -7 25 -12 25 -6 0 -4 5 4 10 8 5 11 10 5 10 -5 0 -11 12 -12 26 0 15 -6 30
-13 34 -9 6 -9 9 1 12 12 4 11 8 -1 23 -13 17 -13 18 0 10 13 -8 13 -6 2 8 -8
9 -12 22 -10 29 3 7 -2 19 -11 26 -9 8 -10 11 -4 7 9 -4 12 2 11 19 -2 16 -9
26 -18 26 -13 0 -13 1 0 10 13 9 13 10 0 10 -13 0 -13 1 0 10 11 7 11 10 2 10
-7 0 -10 5 -6 11 3 6 0 15 -7 20 -12 7 -11 9 1 9 13 0 13 1 0 10 -9 6 -14 21
-12 41 2 17 0 29 -5 26 -12 -7 -10 23 2 42 5 9 4 12 -2 8 -13 -8 -33 48 -34
96 0 9 -4 17 -9 17 -4 0 -11 7 -14 16 -3 8 -2 12 4 9 6 -3 10 -2 10 4 0 5 -4
12 -9 16 -5 3 -7 18 -5 33 5 24 4 25 -8 9 -12 -16 -13 -14 -12 17 1 19 -4 45
-10 58 -7 13 -10 30 -8 37 3 9 0 11 -7 6 -9 -5 -11 1 -8 23 4 21 0 32 -10 36
-9 4 -13 13 -9 21 3 9 -1 18 -10 22 -13 5 -13 7 -2 14 7 5 8 9 3 9 -10 0 -14
14 -17 58 -1 6 -8 12 -17 13 -11 0 -12 2 -3 6 10 4 9 10 -5 26 -12 14 -13 18
-3 12 8 -4 4 4 -10 20 -14 16 -19 25 -12 21 6 -4 12 -2 12 3 0 6 -4 11 -8 11
-4 0 -9 10 -9 22 -1 13 -9 28 -18 34 -12 9 -13 13 -3 17 9 4 9 6 1 6 -7 1 -15
17 -19 37 -4 19 -12 38 -19 41 -7 2 -12 15 -10 28 1 14 -4 26 -12 30 -9 3 -12
12 -9 20 3 8 1 15 -4 15 -6 0 -10 7 -10 15 0 8 -4 15 -10 15 -5 0 -9 3 -9 8 5
28 -3 54 -14 49 -8 -3 -14 1 -14 9 0 7 4 11 9 8 13 -8 9 3 -5 18 -8 7 -18 27
-24 43 -6 17 -16 29 -22 28 -15 -4 -14 10 2 26 8 9 8 12 0 7 -7 -3 -17 6 -25
24 -7 16 -16 30 -20 30 -3 0 -5 11 -4 25 2 13 0 24 -3 23 -21 -2 -29 4 -24 22
4 14 0 20 -11 20 -10 0 -14 5 -11 10 3 6 0 10 -7 10 -9 0 -9 3 2 10 13 8 12
10 -4 10 -11 0 -16 3 -13 7 4 3 -1 15 -10 26 -13 15 -14 19 -3 13 13 -7 13 -6
0 6 -24 22 -56 62 -42 54 6 -4 12 -2 12 3 0 6 -7 11 -15 11 -8 0 -15 7 -15 16
0 8 -4 12 -10 9 -5 -3 -7 0 -5 8 7 16 -29 59 -41 49 -4 -4 -3 0 3 8 10 13 8
18 -8 28 -10 7 -19 19 -19 28 0 8 -4 13 -9 10 -5 -3 -8 2 -7 12 0 10 -5 16
-13 14 -12 -3 -12 -1 -1 13 7 9 9 15 4 14 -18 -3 -34 1 -33 9 3 19 -2 33 -11
27 -5 -3 -10 2 -10 13 0 10 -10 24 -22 30 -13 6 -17 11 -10 11 6 1 12 6 12 12
0 5 -4 8 -9 4 -6 -3 -15 5 -22 17 -7 13 -20 30 -31 39 -10 9 -18 21 -18 27 0
6 -10 19 -23 29 -13 10 -22 24 -19 31 2 8 -2 10 -13 6 -10 -4 -15 -2 -13 7 2
8 -2 13 -9 12 -7 -2 -10 3 -7 11 3 7 -2 16 -11 20 -10 3 -13 11 -9 18 6 9 3 9
-9 0 -14 -12 -16 -11 -12 7 3 14 -1 21 -12 21 -10 0 -13 6 -9 16 3 8 2 12 -4
9 -5 -3 -19 5 -30 17 -12 13 -28 31 -36 40 -9 9 -13 22 -8 29 4 8 3 10 -4 5
-8 -5 -12 1 -12 14 0 14 -4 19 -12 14 -9 -6 -9 -3 0 9 12 14 12 19 -2 32 -18
19 -21 29 -5 19 8 -4 9 0 4 15 -4 13 -2 21 5 21 6 0 8 5 5 10 -3 6 -2 10 4 10
6 0 8 7 5 15 -4 8 1 17 10 21 9 3 16 11 16 16 0 6 8 17 18 25 11 10 12 12 2 8
-10 -4 -9 -2 3 8 9 8 17 20 17 26 0 7 4 9 10 6 5 -3 12 7 16 22 4 15 15 36 26
46 10 10 16 22 13 27 -3 5 4 11 15 15 11 4 18 10 16 14 -3 4 6 20 19 35 14 16
27 37 30 47 4 11 12 19 18 19 8 0 7 3 -2 9 -11 7 -9 10 8 16 12 3 19 10 16 15
-3 4 2 11 11 14 8 3 12 10 9 16 -3 5 -1 10 5 10 7 0 9 7 6 16 -3 8 -2 13 3 10
5 -3 12 1 15 10 3 9 11 12 18 8 10 -6 10 -4 0 8 -10 13 -10 17 3 22 8 3 15 13
15 22 0 10 5 14 14 11 11 -4 13 -1 9 10 -5 12 -3 14 8 8 11 -7 11 -5 -1 10 -8
10 -10 16 -5 13 11 -7 37 17 28 26 -3 3 2 8 11 12 9 3 13 10 10 15 -3 5 0 9 6
9 6 0 8 5 5 10 -3 6 -1 10 5 10 6 0 9 4 5 9 -3 5 4 13 16 16 11 4 18 9 15 12
-3 3 3 18 14 33 11 16 20 33 20 40 0 7 7 10 14 7 11 -4 13 -1 9 10 -4 10 -2
14 4 10 6 -4 10 3 9 16 -1 13 4 21 12 19 8 -1 11 2 7 8 -3 5 1 13 9 16 9 3 14
10 11 14 -3 4 2 13 10 20 8 7 15 19 15 27 0 7 7 16 15 19 8 4 12 10 9 15 -3 5
5 13 18 18 13 6 17 10 8 11 -10 0 -7 7 10 21 14 11 19 18 12 14 -11 -6 -11 -3
0 14 7 12 19 21 27 21 11 0 11 3 1 15 -11 13 -10 14 3 10 8 -4 18 -1 23 6 4 8
3 10 -4 5 -7 -4 -12 -3 -12 2 0 6 7 12 15 16 8 3 15 11 15 17 0 6 10 20 22 30
14 13 17 19 7 20 -8 0 -3 5 10 10 18 7 21 12 12 23 -9 11 -8 14 6 12 10 0 18
6 18 14 0 8 6 19 13 23 6 4 12 17 12 28 0 11 7 22 15 25 8 4 12 11 8 18 -4 6
2 4 12 -4 10 -8 16 -10 12 -3 -9 14 2 45 14 37 5 -3 6 2 3 10 -4 9 -1 16 6 16
7 0 10 7 6 16 -3 8 -2 12 4 9 6 -3 14 5 20 19 5 14 14 26 19 26 6 0 7 7 4 17
-4 10 -2 14 4 10 10 -6 28 19 25 35 -1 4 7 10 18 13 11 4 20 11 20 16 0 6 -6
7 -12 4 -7 -4 -3 2 9 12 12 10 31 37 43 60 14 27 26 40 33 36 7 -4 5 2 -3 12
-9 11 -10 16 -2 11 11 -6 17 4 13 26 0 4 7 4 16 1 11 -4 14 -3 9 5 -4 6 2 20
13 31 11 11 17 22 13 25 -3 3 0 6 6 6 7 0 9 7 5 18 -6 15 -5 15 10 3 15 -12
17 -12 12 1 -4 9 1 18 10 22 10 3 15 12 11 21 -3 8 -2 14 2 12 4 -1 8 1 9 6 5
16 29 35 38 29 6 -3 4 2 -4 11 -12 15 -11 17 3 17 10 0 14 5 11 10 -3 6 -1 10
5 10 7 0 10 7 6 15 -3 9 0 15 9 15 9 0 15 10 16 23 0 13 3 16 6 8 4 -9 11 -2
21 20 8 19 14 38 13 42 -1 5 3 6 9 2 5 -3 10 -1 10 5 0 6 7 18 15 27 8 8 13
19 10 24 -4 5 -1 9 5 9 6 0 15 11 20 25 5 14 14 25 19 25 6 0 7 7 4 17 -4 10
-2 14 4 10 10 -7 27 28 23 48 -1 5 2 7 6 3 4 -4 15 2 26 14 14 17 16 23 6 30
-10 6 -8 8 4 8 10 0 22 9 28 20 6 11 8 20 5 20 -3 0 5 11 19 23 14 13 23 26
21 29 -3 3 5 16 17 30 13 14 34 46 48 71 13 26 28 47 32 47 5 0 8 5 8 10 0 6
9 19 20 30 12 12 18 25 15 30 -4 6 -1 10 4 10 6 0 11 4 11 10 0 17 33 49 43
43 6 -3 7 -1 3 5 -3 6 4 21 16 33 13 12 16 19 8 15 -9 -5 -9 -2 2 7 10 8 15
17 11 20 -3 4 -1 7 5 7 7 0 12 7 12 15 0 8 4 15 9 15 5 0 12 11 15 24 3 14 14
32 23 41 13 13 13 19 3 25 -10 6 -10 9 1 13 10 4 10 6 2 6 -7 1 -13 10 -13 21
0 18 -7 19 -112 18 -62 0 -119 -6 -126 -11 -10 -8 -16 -7 -22 2 -5 8 -10 9
-14 3z m-5271 -9322 c3 -5 1 -10 -4 -10 -6 0 -11 5 -11 10 0 6 2 10 4 10 3 0
8 -4 11 -10z"/>
<path d="M10135 4590 c-3 -5 -1 -10 4 -10 6 0 11 5 11 10 0 6 -2 10 -4 10 -3
0 -8 -4 -11 -10z"/>
</g>
</svg>
